<svg style="height: 512px; width: 512px;" xmlns="http://www.w3.org/2000/svg" viewBox="0 0 512 512"><path d="M0 0h512v512H0z" fill="#000000" fill-opacity="1"></path><g class="" style="touch-action: none;" transform="translate(0,0)"><g><path d="M256.016 17.824C153.28 17.824 68 123.394 68 255.984C68 311.709 83.08 362.664 108.17 403.018C150.203 421.01 203.792 430.612 257.51 430.662C309.338 430.708 361.1 421.876 402.55 405.074C428.41 364.4 444 312.66 444 255.982C444 123.392 358.75 17.826 256.018 17.824L256.016 17.824Z" class="selected" fill="#dfa500" fill-opacity="1"></path><path d="M257.762 36.524C338.287 36.524 403.392 101.596 403.392 182.124C403.392 262.65 338.287 327.754 257.762 327.754C177.232 327.754 112.162 262.65 112.162 182.124C112.162 101.594 177.232 36.524 257.762 36.524Z" class="" fill="#000000" fill-opacity="1"></path><path d="M230.072 76.544C227.486 82.318 224.982 87.836 222.552 93.387C222.009 94.63 221.359 94.925 219.93 95.023C214.494 95.4 209.055 95.95 203.68 96.823C201.91 97.113 200.99 97.033 199.957 95.529C196.622 90.663 193.134 85.903 189.605 80.964L167.268 97.3C171.046 102.604 174.566 107.662 178.23 112.615C179.206 113.933 179.076 114.795 178.332 116.182C176.585 119.44 175.064 122.829 173.632 126.24C172.797 128.224 172.908 131.138 171.506 132.207C169.946 133.397 167.151 132.981 164.891 133.242C160.144 133.79 155.391 134.322 150.448 134.882L153.175 162.408C160.112 161.628 166.645 160.838 173.192 160.213C174.356 160.103 176.112 160.269 176.695 161.013C179.957 165.173 182.943 169.548 186.297 174.233L176.82 195.493L201.877 206.709C204.934 199.897 207.913 193.384 210.767 186.815C211.425 185.297 212.153 184.78 213.91 184.751C217.942 184.685 222.02 184.468 225.973 183.731C228.266 183.305 229.433 183.713 230.73 185.575C234.728 191.315 238.93 196.912 243.116 202.651L259.2 190.929L264.737 200.517L244.751 220.527L220.323 206.493L207.288 230.208C215.575 235.032 223.572 239.688 230.855 243.93C228.703 253.015 226.705 261.612 224.565 270.174C224.409 270.79 223.215 271.544 222.493 271.557C215.906 271.662 209.313 271.62 202.723 271.62L196.138 271.62L196.138 298.054C196.808 298.372 197.483 298.682 198.158 298.989L224.245 298.989C224.995 302.163 225.722 305.195 226.427 308.192C235.314 310.028 244.536 311 254 311C269.906 311 285.138 308.272 299.236 303.277C290.972 289.907 292.971 272.787 302.354 262.104C315.638 246.974 338.914 245.929 353.148 260.072C354.315 261.232 355.38 262.438 356.358 263.682C374.897 241.53 386 213.237 386 182.412C386 176.24 385.546 170.172 384.686 164.232C384.45 164.112 384.259 164.012 384 163.882C383.868 163.814 383.69 163.835 383.336 163.792C378.749 171.752 374.126 179.778 369.776 187.332L342.244 179.766L342.244 152.556L314.924 152.556L314.924 179.796C305.901 182.236 297.228 184.583 288.279 187.002C283.937 179.452 279.381 171.53 274.809 163.576L256.577 173.811C255.267 171.986 254.152 170.299 252.892 168.724C252.067 167.694 252.244 166.999 252.864 165.864C255.042 161.884 257.221 157.872 258.924 153.679C259.729 151.691 260.617 151.047 262.654 150.869C269.107 150.312 275.539 149.509 282.27 148.767C281.35 139.447 280.45 130.37 279.55 121.245C272.755 121.897 266.45 122.465 260.154 123.135C258.664 123.292 258.054 122.747 257.266 121.475C254.479 116.98 251.58 112.531 248.376 108.331C247.216 106.813 246.95 105.871 247.746 104.183C250.283 98.796 252.646 93.329 255.139 87.745C246.689 83.971 238.476 80.3 230.071 76.545Z" class="" fill="#c9c9c9" fill-opacity="1"></path><path d="M216.617 119.389C228.952 119.491 238.812 129.462 238.709 141.726C238.604 154.159 228.576 163.966 216.114 163.819C203.688 163.674 194.067 153.699 194.206 141.099C194.34 129.013 204.38 119.285 216.616 119.389Z" class="" fill="#000000" fill-opacity="1"></path><path d="M171.434 334.019C189.749 334.019 204.5 348.819 204.5 367.429C204.5 386.037 189.75 400.866 171.436 400.866C153.121 400.866 138.4 386.036 138.4 367.429C138.4 348.819 153.12 334.019 171.434 334.019Z" class="" fill="#000000" fill-opacity="1"></path><path d="M336.768 334.751C354.993 334.751 369.768 349.526 369.768 367.751C369.768 385.976 354.993 400.751 336.768 400.751C318.543 400.751 303.768 385.976 303.768 367.751C303.768 349.526 318.543 334.751 336.768 334.751Z" class="" fill="#000000" fill-opacity="1"></path><path d="M128.396 430.753L128.396 430.759C128.399 430.759 128.401 430.759 128.404 430.761L128.396 430.753Z" class="" fill="#4a4a4a" fill-opacity="1"></path><path d="M128.404 430.761C139.888 444.204 152.694 455.835 166.512 465.347L159.436 439.044C148.788 436.701 138.423 433.931 128.404 430.761Z" class="" fill="#dfa500" fill-opacity="1"></path><path d="M382.294 432.281C373.424 434.951 364.3 437.297 354.964 439.327L348.544 463.23C360.684 454.507 372.004 444.11 382.294 432.287L382.294 432.283Z" class="" fill="#dfa500" fill-opacity="1"></path><path d="M179.82 443L179.82 443L189.385 478.686C200.695 484.138 212.505 488.236 224.695 490.842L219.647 447.836C206.175 446.834 192.85 445.191 179.819 442.998Z" class="" fill="#dfa500" fill-opacity="1"></path><path d="M334.613 443.252C324.489 444.919 314.166 446.235 303.763 447.212L298.961 487.914C308.071 485.194 316.921 481.622 325.483 477.284L334.616 443.256L334.616 443.254L334.614 443.252Z" class="" fill="#dfa500" fill-opacity="1"></path><path d="M284.843 448.549L284.838 448.579L284.844 448.579L284.842 448.549Z" class="" fill="#d0021b" fill-opacity="1"></path><path d="M284.838 448.579C275.758 449.081 266.632 449.332 257.514 449.332C251.17 449.327 244.828 449.206 238.502 448.955L243.799 493.675C247.839 494.052 251.911 494.178 256.015 494.178C264.018 494.178 271.905 493.552 279.667 492.273L284.837 448.581Z" class="" fill="#dfa500" fill-opacity="1"></path></g></g></svg>