<svg xmlns="http://www.w3.org/2000/svg" viewBox="0 0 512 512" style="height: 512px; width: 512px;"><path d="M0 0h512v512H0z" fill="#000" fill-opacity="1"></path><g class="" transform="translate(0,0)" style="touch-action: none;"><g><path d="M80.87 28.32C70.843 28.482 60.805 31.79 51.164 39.375C79.26 31.458 116.008 60.67 128.582 94.5C95.494 97.365 51.09 115.693 36.209 155.29C81.391 119.894 113.646 105.782 133.401 126.646C113.041 146.878 95.708 176.501 98.679 203.706C107.176 184.204 129.321 156.5 152.442 146.75C152.425 146.996 152.412 147.243 152.405 147.49C152.405 157.188 160.265 165.05 169.965 165.05C175.472 165.04 180.657 162.447 183.968 158.045C227.052 220.351 230.671 262.008 230.958 329.175C232.178 332.94 234.268 342.832 239.67 342.498C241.808 342.348 247.556 338.3 248.91 327.592C248.252 255.512 242.248 206.722 189.262 134.702C189.35 134.265 189.432 133.822 189.506 133.367C202.276 107.853 252.644 120.833 274.713 126.025C254.761 101.749 211.649 92.642 183.453 95.871C190.44 71.881 225.033 60.085 262.975 55.991C227.692 41.459 179.352 53.391 154.477 74.573C135.557 50.943 108.257 27.881 80.867 28.321Z" class="" fill="#417505" fill-opacity="1"></path><path d="M316.444 88.3C302.027 88.03 285.838 93.597 268.606 107.98C324.193 98.222 334.831 121.916 333.866 149.227C306.002 145.262 268.386 151.515 250.142 173.715C265.389 170.127 294.135 167.839 314.669 175.315C312.533 178.291 311.381 181.862 311.376 185.525C311.376 195.222 319.236 203.083 328.933 203.085C330.091 203.078 331.245 202.958 332.38 202.725C303.196 242.855 288.794 280.135 282.73 312.49C288.643 313.128 294.575 313.962 300.51 314.98C306.777 281.88 322.667 242.88 357.332 199.734C360.659 203.541 365.466 205.728 370.522 205.736C379.062 205.726 386.355 199.574 387.805 191.158C412.167 193.562 440.578 210.771 454.715 225.35C448.235 200.008 423.615 179.114 398.598 167.025C418.605 146.913 463.155 139.185 483.721 140.175C435.509 117.935 396.381 119.899 373.659 130.937C363.719 109.29 343.115 88.804 316.446 88.301Z" class="" fill="#417505" fill-opacity="1"></path><path d="M18 327L18 345L118.234 345C132.776 338.214 148.034 332.106 163.668 327Z" class="" fill="#48baff" fill-opacity="1"></path><path d="M348.69 327C364.426 332.106 379.792 338.213 394.426 345L494 345L494 327Z" class="" fill="#48baff" fill-opacity="1"></path><path d="M266.832 329.29C264.866 346.302 254.992 359.468 240.934 360.455C223.841 359.369 216.454 346.85 213.334 333.018C179.954 338.958 146.06 351.033 116.024 366.051C79.217 384.456 48.266 407.529 31.082 427.284C35.969 428.767 41.404 430.407 48.082 432.128C64.316 436.311 84.185 439.948 95.258 439.032C104.073 438.302 113.308 433.449 123.648 427.762C133.988 422.075 145.468 415.542 159.482 414.736C178.482 413.644 195.494 420.446 211.322 426.776C227.15 433.108 241.879 438.983 256.012 439.002C264.887 439.014 274.372 435.709 284.842 431.782C295.312 427.857 306.744 423.314 319.785 423.004C350.681 422.269 376.437 438.622 400.145 439.004C414.741 439.239 438.675 435.394 458.367 431.379C467.079 429.603 474.417 427.909 480.547 426.469C463.937 407.077 433.351 384.279 396.773 366.089C356.863 346.243 309.963 331.471 266.833 329.291Z" class="" fill="#f7c164" fill-opacity="1"></path><path d="M169.064 438.95C151.371 439.81 133.614 447.56 117.844 454.955C108.832 459.181 100.501 463.402 93.676 466.441C86.85 469.48 81.11 471 80 471C54.34 471 31.057 458.293 18 449.508L18 470.98C33.352 479.837 55.207 489 80 489C87.268 489 93.51 486.22 100.998 482.885C108.486 479.55 116.798 475.325 125.486 471.252C142.862 463.105 161.868 456.018 175.361 456.977C184.091 457.597 192.821 463.243 202.811 470.487C212.804 477.733 223.873 486.5 238.561 488.883C259.611 492.299 279.538 486.873 298.281 481.668C317.026 476.464 334.684 471.474 351.191 472.963C357.191 473.503 362.553 476.566 370.058 480.527C377.562 484.487 387.252 489 400 489C414.94 489 438.64 484.87 459.537 480.836C474.62 477.926 487.737 475.064 494 473.67L494 455.28L493.988 455.23C493.988 455.228 476.675 459.198 456.125 463.164C435.575 467.13 411.277 471 400 471C391.306 471 385.394 468.27 378.46 464.61C371.524 460.95 363.608 456.01 352.81 455.037C331.757 453.139 312.026 459.171 293.467 464.324C274.907 469.477 257.615 473.742 241.441 471.117C232.585 469.68 223.551 463.293 213.378 455.917C203.204 448.539 191.702 440.094 176.64 439.023C174.04 438.846 171.48 438.833 169.064 438.949Z" class="selected" fill="#48baff" fill-opacity="1"></path></g></g></svg>