<svg style="height: 512px; width: 512px;" xmlns="http://www.w3.org/2000/svg" viewBox="0 0 512 512"><path d="M0 0h512v512H0z" fill="transparent" fill-opacity="0"></path><g class="" style="touch-action: none;" transform="translate(0,0)"><g transform="translate(76.8, 76.8) scale(0.7, 0.7) rotate(-45, 256, 256)"><path d="M92.58 21.05C60.58 21.05 28.58 45.05 28.58 93.05L92.58 221L156.6 93.05C156.6 45.05 124.6 21.05 92.58 21.05Z" class="" fill="#f8e71c" fill-opacity="1"></path><path d="M374.9 60.06L374.6 60.27L374.3 60.27L371.3 60.51L371.1 60.51L368.1 60.83L367.8 60.83L364.8 61.24L364.6 61.24L361.5 61.74L361.3 61.74L358.2 62.33L358 62.33L355.7 62.82L359.5 80.42L361.6 79.96L364.6 79.39L367.4 78.94L370.2 78.55L372.9 78.26L375.6 78.04L375.8 78.04Z" class="selected" fill="#4a90e2" fill-opacity="1"></path><path d="M92.58 61.05C110.261 61.039 124.6 75.369 124.6 93.05C124.572 110.711 110.241 125.011 92.58 125C74.926 125 60.608 110.704 60.58 93.05C60.58 75.377 74.907 61.05 92.58 61.05Z" class="" fill="#ffffff" fill-opacity="1"></path><path d="M394.8 61.21L391.8 78.98L392.7 79.13L394.9 79.6L397 80.16L399.1 80.81L401.1 81.54L403.1 82.37L404.9 83.27L405.9 83.82L414.6 68.03L413.4 67.37L413.2 67.26L413 67.16L410.7 66.05L410.5 65.95L410.3 65.85L407.9 64.85L407.7 64.75L407.5 64.65L405.1 63.77L404.9 63.67L404.7 63.57L402.2 62.8L402 62.7L401.8 62.7L399.3 62.04L399.1 61.94L398.9 61.94L396.3 61.39L395.9 61.39Z" class="" fill="#4a90e2" fill-opacity="1"></path><path d="M337.3 67.94L334.3 69.19L334.1 69.19L330.8 70.4L330.6 70.4L327.3 71.68L327.1 71.68L323.7 73.02L323.6 73.02L320.2 74.43L320.1 74.43L319.9 74.53L327 91.08L327.2 90.98L330.4 89.66L333.7 88.34L333.8 88.34L337 87.13L340.1 86.02L343.2 84.97Z" class="" fill="#4a90e2" fill-opacity="1"></path><path d="M431 81.36L417.3 93.07L418.3 94.17L419.7 96.05L421.1 98.05L423 101L424.7 104L425.9 106.3L442 98.25L440.7 95.79L440.6 95.58L440.5 95.38L438.6 92.01L438.5 91.82L438.4 91.63L436.2 88.23L436.1 88.05L436 87.88L434.3 85.53L434.2 85.36L434.1 85.18L432.3 82.97L432.2 82.79L432.1 82.62Z" class="" fill="#4a90e2" fill-opacity="1"></path><path d="M303.2 82.27L302.3 82.83L302.2 82.83L295.1 86.42L295 86.42L294.9 86.52L287.8 90.31L287.7 90.31L286.7 90.84L295.5 106.6L296.3 106.1L296.4 106.1L303.3 102.3L310.1 98.85L310.2 98.85L311 98.45Z" class="" fill="#4a90e2" fill-opacity="1"></path><path d="M270.9 100.1L265.9 103L265.9 103.1L265.8 103.1L258.6 107.6L258.5 107.6L255.3 109.7L265.1 124.8L268.1 122.9L268.2 122.8L275.3 118.4L280.1 115.5Z" class="" fill="#4a90e2" fill-opacity="1"></path><path d="M448.2 118L438.9 119.4L430.4 120.4L430.5 121.8L430.6 123.1L430.7 124.4L430.7 126.8L430.6 128.1L430.5 129.4L430.4 130.6L430.2 131.8L430 133L429.5 135.1L447 139.2L447.6 136.9L447.6 136.7L447.7 136.4L447.9 134.9L448 134.8L448 134.6L448.2 133.1L448.2 133L448.3 132.8L448.4 131.3L448.5 131.1L448.5 131L448.6 129.5L448.6 129.2L448.7 127.6L448.7 123.7L448.6 122.1L448.6 121.8L448.4 120.3L448.4 120L448.2 118.4L448.2 118.2Z" class="" fill="#4a90e2" fill-opacity="1"></path><path d="M240.1 119.7L236.8 121.9L236.8 122L229.7 126.9L229.6 126.9L229.6 127L225.2 130.1L235.6 144.8L239.9 141.7L246.9 136.8L247 136.8L250.2 134.6Z" class="" fill="#4a90e2" fill-opacity="1"></path><path d="M210.5 140.8L208.5 142.2L208.5 142.3L201.6 147.4L196 151.7L206.9 166L212.5 161.9L212.5 161.8L219.2 156.8L219.3 156.7L221.2 155.3Z" class="" fill="#4a90e2" fill-opacity="1"></path><path d="M423.5 148.8L422.5 150.4L420.7 153L418.8 155.5L416.7 158.1L414.5 160.6L413.5 161.6L426.6 174L427.6 172.8L427.7 172.7L427.8 172.6L430.3 169.8L430.4 169.7L430.5 169.6L432.8 166.8L432.9 166.7L433 166.5L435.2 163.7L435.3 163.5L435.4 163.5L437.4 160.5L437.5 160.5L437.6 160.3L438.7 158.5Z" class="" fill="#4a90e2" fill-opacity="1"></path><path d="M181.7 162.9L181.6 163L181.5 163L175.1 168.1L175.1 168.2L168.8 173.3L167.6 174.3L179 188.2L180.2 187.2L186.4 182.2L186.4 182.1L192.7 177.1L192.8 177.1L192.9 177Z" class="" fill="#4a90e2" fill-opacity="1"></path><path d="M401.1 173.1L400.8 173.3L397.7 175.8L394.4 178.4L391 180.8L390.9 180.9L387.3 183.4L397.6 198.2L401.3 195.6L401.4 195.5L401.5 195.5L405.1 192.8L405.2 192.7L408.7 190.1L408.8 190L412.2 187.4L412.3 187.3L412.6 187Z" class="" fill="#4a90e2" fill-opacity="1"></path><path d="M153.7 185.9L150.9 188.2L150.8 188.3L139.9 197.6L151.6 211.3L162.5 201.9L165.2 199.7Z" class="" fill="#4a90e2" fill-opacity="1"></path><path d="M372.6 192.9L371.8 193.4L371.7 193.4L367.6 195.8L367.6 195.9L367.5 195.9L363.3 198.3L363.3 198.4L358.9 200.8L357.4 201.6L366 217.5L367.6 216.6L367.7 216.5L372.1 214L372.2 214L376.6 211.5L376.7 211.5L381 208.9L381.1 208.9L382 208.3Z" class="" fill="#4a90e2" fill-opacity="1"></path><path d="M126.2 209.6L120.1 215.1L120 215.1L112.8 221.7L124.9 235L132.1 228.5L138.2 223.1Z" class="" fill="#4a90e2" fill-opacity="1"></path><path d="M341.7 209.9L340.3 210.6L330.6 215.5L330.5 215.5L325.8 217.8L333.5 234L338.4 231.6L338.5 231.6L348.4 226.7L348.5 226.7L348.6 226.6L349.9 225.9Z" class="" fill="#4a90e2" fill-opacity="1"></path><path d="M309.7 225.3L299.6 229.8L299.6 229.9L293.3 232.6L300.6 249.1L306.9 246.3L307 246.3L317.1 241.7Z" class="" fill="#4a90e2" fill-opacity="1"></path><path d="M99.58 234L98.08 235.3L97.98 235.3L97.98 235.4L89.39 243.5L89.39 243.6L86.37 246.5L98.98 259.5L101.9 256.6L110.5 248.5L111.9 247.3Z" class="" fill="#4a90e2" fill-opacity="1"></path><path d="M276.9 239.8L266.8 244.1L260.4 246.8L267.4 263.5L273.8 260.8L284 256.4Z" class="" fill="#4a90e2" fill-opacity="1"></path><path d="M243.8 253.8L232.9 258.5L227.2 260.8L234.2 277.5L239.9 275.1L250.8 270.5Z" class="" fill="#4a90e2" fill-opacity="1"></path><path d="M428.6 261C396.6 261 364.6 285 364.6 333L428.6 461L492.6 333C492.6 285 460.6 261 428.6 261Z" class="" fill="#f8e71c" fill-opacity="1"></path><path d="M210.6 267.8L210.3 268L210.2 268L199 272.8L198.9 272.8L194 274.9L201.1 291.5L206 289.4L217.2 284.6L217.3 284.6L217.6 284.4Z" class="" fill="#4a90e2" fill-opacity="1"></path><path d="M177.4 282L176.6 282.3L176.6 282.5L165.6 287.3L165.6 287.4L160.9 289.5L168.3 305.9L172.9 303.8L173 303.6L183.8 299L183.9 298.8L184.6 298.5Z" class="" fill="#4a90e2" fill-opacity="1"></path><path d="M144.4 297L144.2 297.1L144.1 297.1L133.8 302.1L133.7 302.1L128 305L136.1 321.1L141.6 318.3L151.8 313.5L151.9 313.3L152 313.3Z" class="" fill="#4a90e2" fill-opacity="1"></path><path d="M428.6 301C446.273 301 460.6 315.327 460.6 333C460.6 350.673 446.273 365 428.6 365C410.927 365 396.6 350.673 396.6 333C396.6 315.327 410.927 301 428.6 301Z" class="" fill="#ffffff" fill-opacity="1"></path><path d="M111.8 313.3L108.9 314.8L108.9 315L104.2 317.5L104.2 317.6L104.1 317.6L99.48 320.1L99.48 320.2L95.8 322.3L104.8 337.9L108.4 335.8L108.5 335.8L112.9 333.3L117.4 330.8L117.5 330.8L120.3 329.3Z" class="" fill="#4a90e2" fill-opacity="1"></path><path d="M80.09 332L77.66 333.5L77.56 333.6L77.46 333.6L73.51 336.3L73.41 336.3L73.31 336.4L69.47 339.1L69.27 339.1L65.56 341.9L65.46 341.9L65.36 342L64.47 342.6L75.35 357L76.18 356.3L76.28 356.3L79.8 353.7L83.78 351.1L87.56 348.6L87.66 348.5L89.92 347.1Z" class="" fill="#4a90e2" fill-opacity="1"></path><path d="M50.2 354.6L48.39 356.3L48.29 356.4L48.19 356.5L45.29 359.3L45.19 359.4L45.09 359.5L42.33 362.3L42.23 362.5L42.13 362.6L39.52 365.4L39.42 365.5L39.32 365.7L36.99 368.4L50.72 380.1L52.97 377.4L55.35 374.8L57.93 372.1L60.68 369.4L62.39 367.9Z" class="" fill="#4a90e2" fill-opacity="1"></path><path d="M274.1 355.5L272 355.6L271.8 355.6L269.7 355.7L269.4 355.7L268 355.9L269.6 373.8L270.9 373.6L272.8 373.5L274.5 373.4L276.3 373.4L278.1 373.5L279.9 373.6L281.6 373.8L283.3 374L285.2 374.3L288.3 356.6L286.1 356.2L285.7 356.2L283.7 355.9L283.4 355.9L281.3 355.7L281.1 355.7L279 355.6L278.7 355.6L276.7 355.5L274.2 355.5Z" class="" fill="#4a90e2" fill-opacity="1"></path><path d="M248.7 359.5L248.6 359.6L248.4 359.6L244.1 360.9L243.9 361L243.8 361L239.4 362.5L239.3 362.6L239.1 362.6L234.7 364.3L234.6 364.4L234.5 364.4L230.8 365.9L237.6 382.6L241.3 381.1L245.4 379.5L249.4 378.1L253.7 376.8L251.9 371.1L248.9 359.5Z" class="" fill="#4a90e2" fill-opacity="1"></path><path d="M308.3 365L298.1 379.8L299.6 380.9L301.5 382.3L303.4 383.9L305.2 385.6L307.1 387.5L308.9 389.3L309.7 390.3L323.3 378.5L322.4 377.5L322.3 377.3L322.2 377.2L320.2 375L320.1 374.9L319.9 374.8L317.9 372.7L317.7 372.6L317.6 372.5L315.5 370.5L315.3 370.4L315.2 370.2L313 368.4L312.8 368.2L312.7 368.1L310.4 366.4L310.3 366.2L310.1 366.1Z" class="" fill="#4a90e2" fill-opacity="1"></path><path d="M213.8 374L211.5 375.1L211.4 375.3L206.9 377.8L206.8 377.8L202.3 380.4L202.2 380.4L202.2 380.5L197.7 383.1L206.8 398.6L211.3 396L215.6 393.5L215.7 393.5L219.9 391.2L219.9 391L222.2 389.9Z" class="" fill="#4a90e2" fill-opacity="1"></path><path d="M26.03 385L25.92 385.1L25.82 385.3L24.38 388.3L24.28 388.5L24.18 388.8L22.92 391.8L22.82 392.1L22.72 392.3L21.65 395.5L21.55 395.6L21.45 396L20.56 399.1L20.46 399.4L20.36 399.7L19.67 402.8L19.67 403.2L19.42 404.7L37.16 407.8L37.39 406.4L37.97 403.8L38.71 401.1L39.61 398.5L40.68 395.9L42.03 393.1L33.98 389.3Z" class="" fill="#4a90e2" fill-opacity="1"></path><path d="M182.1 392.8L174.9 397.5L174.8 397.6L167 402.8L177 417.8L184.8 412.6L184.8 412.5L191.9 407.8Z" class="" fill="#4a90e2" fill-opacity="1"></path><path d="M334.8 394L319.7 403.8L321.1 406L321.2 406L324.6 411.5L328 417.1L328.9 418.7L344.5 409.7L343.5 408.1L343.5 408L340 402.1L339.9 402L336.4 396.3L336.3 396.2Z" class="" fill="#4a90e2" fill-opacity="1"></path><path d="M152.1 413L139.6 421.3L137.2 423L147.2 438L149.7 436.3L149.7 436.2L149.8 436.2L162.2 427.8Z" class="" fill="#4a90e2" fill-opacity="1"></path><path d="M37.3 422.5L34.49 423.1L19.87 425.8L19.87 426.2L20.22 427.9L20.22 428.1L20.64 429.8L20.64 430.1L21.1 431.8L21.1 432.1L21.63 433.8L21.63 434L22.22 435.7L22.22 436L22.86 437.7L22.96 437.8L22.96 437.9L23.66 439.7L23.76 439.8L23.86 439.9L24.61 441.6L24.71 441.8L24.81 441.9L26.27 445L42.49 437.2L41.11 434.3L40.47 432.8L39.84 431.3L39.32 429.9L38.79 428.3L38.35 426.9L37.96 425.5L37.6 424L37.3 422.6Z" class="" fill="#4a90e2" fill-opacity="1"></path><path d="M353.4 425.3L337.8 434.3L338.1 434.8L338.1 434.9L338.2 434.9L341.6 440.8L341.7 440.9L345.2 446.6L345.2 446.7L345.3 446.8L347.4 450.1L362.5 440.4L360.5 437.2L357.1 431.7L357.1 431.6L353.7 425.9L353.7 425.8Z" class="" fill="#4a90e2" fill-opacity="1"></path><path d="M122.4 432.8L119 434.9L118.9 434.9L115 437.3L115 437.4L114.9 437.4L111 439.7L107.3 441.8L116.2 457.5L120 455.3L120.1 455.2L120.2 455.2L124.2 452.8L124.3 452.7L128.4 450.2L128.5 450.2L131.9 448Z" class="" fill="#4a90e2" fill-opacity="1"></path><path d="M51.13 449.1L38.85 462.3L39.66 463L39.81 463.1L39.97 463.3L41.21 464.4L41.37 464.5L41.54 464.6L42.8 465.6L42.97 465.7L43.15 465.9L44.44 466.8L44.62 466.9L44.8 467L46.11 467.8L46.3 468L46.5 468.1L47.83 468.8L48.03 468.9L48.22 469L49.58 469.7L49.78 469.8L49.99 469.9L51.37 470.5L51.57 470.6L51.78 470.7L53.18 471.2L53.39 471.3L53.6 471.3L55.02 471.8L55.23 471.9L55.44 471.9L56.88 472.3L57.09 472.4L57.29 472.4L58.76 472.7L62.68 455.2L61.4 454.9L60.38 454.6L59.37 454.3L58.36 453.9L57.38 453.5L56.43 453L55.5 452.5L54.54 451.9L53.61 451.2L52.71 450.5L51.76 449.7Z" class="" fill="#4a90e2" fill-opacity="1"></path><path d="M92.14 449.4L89.09 450.7L85.74 452L82.52 453.1L79.43 454L76.51 454.6L80.66 472.2L83.78 471.4L84 471.4L84.21 471.3L87.72 470.3L87.91 470.2L88.09 470.2L91.67 469L91.84 468.9L92 468.9L95.64 467.5L95.79 467.4L95.93 467.3L99.08 466Z" class="" fill="#4a90e2" fill-opacity="1"></path><path d="M372.4 454.2L358.5 465.5L358.9 466L358.9 466.1L359 466.2L361 468.5L361.1 468.6L361.2 468.7L363.3 471L363.4 471.1L363.5 471.2L365.6 473.3L365.7 473.4L365.8 473.5L368 475.6L368.1 475.7L368.3 475.8L370.5 477.7L370.6 477.8L370.8 478L372.7 479.5L383.8 465.3L382 463.9L380.1 462.3L378.2 460.5L376.4 458.7L374.6 456.7L372.7 454.5Z" class="" fill="#4a90e2" fill-opacity="1"></path><path d="M396.5 471.7L392 489.2L394 489.7L394.3 489.7L394.5 489.8L397.4 490.3L397.7 490.4L398 490.4L400.9 490.8L401.3 490.8L402.8 490.9L403.1 490.9L404.6 491L406.7 491L408.3 490.9L408.6 490.9L410.2 490.8L410.4 490.8L412 490.6L412.3 490.6L413.2 490.5L411 472.6L410.2 472.7L408.9 472.9L407.6 472.9L406.4 473L405.1 473L403.9 472.9L402.8 472.9L400.4 472.6L398.1 472.1Z" class="" fill="#4a90e2" fill-opacity="1"></path></g></g></svg>