<svg xmlns="http://www.w3.org/2000/svg" viewBox="0 0 512 512" style="height: 512px; width: 512px;"><path d="M0 0h512v512H0z" fill="#000" fill-opacity="1"></path><g class="" transform="translate(0,0)" style="touch-action: none;"><g><path d="M416.833 424.997C410.45 431.356 405.846 439.277 403.479 447.97L324.499 368.99L369.471 324.02L448.451 402.998C439.757 405.365 431.836 409.969 425.477 416.352Z" class="" fill="#8b572a" fill-opacity="1"></path><path d="M207.746 222.757L121.466 125.107L219.119 211.384L309.889 291.574L324.816 276.647C234.282 177.264 187.103 108.777 148.626 64.562C148.626 64.562 109.018 78.357 25.999 26.482C25.999 26.482 33.061 146.924 278.033 323.43L287.946 313.517Z" class="" fill="#c9c9c9" fill-opacity="1"></path><path d="M362.966 304.917C370.333 296.603 365.937 283.432 355.054 281.209C350.607 280.301 345.993 281.537 342.596 284.547L285.026 342.114C277.659 350.428 282.055 363.599 292.938 365.822C297.385 366.73 301.999 365.494 305.396 362.484Z" class="selected" fill="#8b572a" fill-opacity="1"></path><path d="M486 429.15C472.822 415.973 451.456 415.973 438.278 429.15L429.632 437.797C416.455 450.975 416.455 472.341 429.632 485.519Z" class="" fill="#4a4a4a" fill-opacity="1"></path></g></g></svg>