<svg xmlns="http://www.w3.org/2000/svg" viewBox="0 0 512 512" style="height: 512px; width: 512px;"><path d="M0 0h512v512H0z" fill="#000" fill-opacity="1"></path><g class="" transform="translate(0,0)" style="touch-action: none;"><g><path d="M277.854 21.719C235.614 72.159 247.734 186.792 267.576 251.129C258.753 242.824 250.13 235.011 241.764 227.742C236.183 172.102 124.401 39.414 39.666 37.552C42.437 116.237 163.803 210.015 220.357 233.205C234.785 245.32 250.326 259.513 266.506 275.232C207.476 241.579 87.536 215.415 31.662 251.416C91.428 296.288 264.711 315.12 297.146 306.037C309.431 318.779 321.516 331.713 333.396 344.834C277.543 320.949 175.924 308.736 131.385 343.662C185.849 384.217 320.205 388.37 360.925 375.872C364.859 380.407 368.778 384.966 372.678 389.547C375.674 389.849 378.772 390.527 381.973 391.67C394.599 396.177 402.395 406.842 404.893 418.217C405.726 422.013 406.079 425.902 406.045 429.822C421.031 448.427 435.418 467.01 448.797 485.119L463.273 474.422C446.434 451.63 428.125 428.165 409.045 404.857C440.918 363.308 476.859 231.97 464.162 185.314C412.128 217.073 390.22 324.931 390.725 382.809C381.717 372.135 372.594 361.559 363.357 351.082C394.667 309.455 406.442 145.649 369.987 85.705C319.742 135.602 325.39 265.313 342.111 327.369C327.169 310.991 312.232 295.224 297.586 280.436C319.729 228.458 324.263 74.366 277.854 21.719Z" class="" fill="#417505" fill-opacity="1"></path><path d="M339.444 398.715C326.661 400.328 313.246 401.966 299.752 403.07C287.643 421.364 283.134 449.477 296.612 453.94C300.517 455.232 306.449 454.142 313.272 449.768C317.206 447.245 321.209 443.719 324.877 439.643C327.217 426.59 332.587 413.813 340.381 404.4C340.302 402.31 340.019 400.426 339.443 398.715Z" class="selected" fill="#225b50" fill-opacity="1"></path><path d="M262.047 404.235C232.352 411.337 205.755 424.197 191.217 443.985C212.435 445.811 240.778 446.066 269.9 444.883C268.035 432.353 271.292 417.502 277.895 404.279C272.541 404.413 267.24 404.421 262.047 404.234Z" class="" fill="#417505" fill-opacity="1"></path><path d="M369.927 407.42C341.29 406.364 332.903 476.513 355.303 478.652C359.398 479.043 364.938 476.659 370.615 470.875C376.293 465.091 381.545 456.372 384.691 447.309C387.837 438.246 388.805 428.884 387.311 422.076C385.816 415.269 382.933 411.123 375.921 408.621C373.836 407.877 371.837 407.491 369.928 407.42Z" class="" fill="#225b50" fill-opacity="1"></path></g></g></svg>