<svg xmlns="http://www.w3.org/2000/svg" viewBox="0 0 512 512" style="height: 512px; width: 512px;"><g class="" transform="translate(0,0)" style="touch-action: none;"><g><path d="M148.97 22.47L142.72 22.563L140.156 28.719C126.921 66.275 118.876 107.719 118.876 146.812C118.876 200.589 133.724 239.982 158.75 265.687C177.695 285.145 202.11 296.383 228.906 300.687C245.996 348.802 244.991 401.692 226.344 449.374C195.789 454.492 166.09 467.647 140.031 488.874L371.251 488.874C345.185 467.644 315.501 454.49 284.938 449.374C266.271 401.64 265.318 348.688 282.47 300.53C309.05 296.148 333.31 284.978 352.22 265.688C377.404 239.996 392.406 200.608 392.406 146.813C392.406 107.72 384.361 66.276 371.126 28.719L368.938 22.469L148.968 22.469Z" class="selected" fill="#ffffff" fill-opacity="1"></path><path d="M155.72 41.156L355.563 41.156C362.813 62.971 368.203 86.06 371.156 108.876L140.126 108.876C143.079 86.06 148.47 62.971 155.719 41.156Z" class="" fill="#b7e4fe" fill-opacity="1"></path><path d="M138.25 127.562L373.03 127.562C373.48 134.052 373.72 140.474 373.72 146.812C373.72 197.169 360.004 231.072 338.875 252.625C317.745 274.179 288.58 284.031 255.345 284.031C222.107 284.031 193.098 274.168 172.125 252.626C151.152 231.084 137.562 197.189 137.562 146.813C137.562 140.475 137.802 134.053 138.25 127.563Z" class="" fill="#770410" fill-opacity="1"></path></g></g></svg>