<svg xmlns="http://www.w3.org/2000/svg" viewBox="0 0 512 512" style="height: 512px; width: 512px;"><path d="M0 0h512v512H0z" fill="#000" fill-opacity="1"></path><g class="" transform="translate(0,0)" style="touch-action: none;"><g><path d="M256.25 20.313C147.61 20.313 59.47 110.905 59.47 223.25C59.47 307.865 109.464 380.154 180.563 410.688L180.563 394.313C180.563 368.675 174.363 354.181 166.688 345.843C159.013 337.507 149.121 334.443 138.968 333.906C120.716 332.936 106.568 321.64 98.063 306.906C91.593 295.701 92.088 282.139 97.531 269.936C102.975 257.736 113.021 246.226 126.721 236.031C154.115 215.641 196.511 200.471 249.157 200.471C301.859 200.471 347.632 216.119 378.501 236.689C393.936 246.973 405.741 258.435 412.721 270.657C419.697 282.879 421.651 297.067 414.907 308.751C410.717 316.008 403.881 320.739 396.22 324.689C388.557 328.639 380.135 331.469 371.625 331.469C359.76 331.469 350.995 333.683 344.187 341.626C337.379 349.569 331.75 365.256 331.75 394.314L331.75 410.751C402.945 380.263 453.03 307.937 453.03 223.251C453.03 110.904 364.89 20.313 256.25 20.313Z" class="" fill="#dfa500" fill-opacity="1"></path><path d="M179.594 107.031C181.124 107.051 182.644 107.109 184.156 107.188C198.681 107.954 212.446 111.488 225.219 117.158L242.529 124.845L225.905 133.907L141.843 179.782L132.905 163.377L198.061 127.814C173.866 122.301 147.141 125.937 115.999 145.346L106.124 129.502C131.902 113.436 156.652 106.752 179.594 107.032Z" class="" fill="#000000" fill-opacity="1"></path><path d="M329.906 107.031C352.85 106.751 377.628 113.435 403.406 129.501L393.531 145.345C362.391 125.935 335.666 122.3 311.471 127.815L376.626 163.375L367.688 179.782L283.626 133.908L267 124.844L284.313 117.156C297.085 111.486 310.819 107.953 325.343 107.186C326.857 107.108 328.377 107.05 329.906 107.031Z" class="" fill="#000000" fill-opacity="1"></path><path d="M256.312 277.313C187.365 277.313 143.208 292.68 139.469 315.22L139.969 315.25C153.456 315.964 168.812 320.56 180.437 333.188C192.061 345.815 199.249 365.606 199.249 394.313L199.249 494.625L313.062 494.625L313.062 394.312C313.062 362.912 318.828 342.502 329.999 329.469C341.169 316.435 357.002 312.779 371.624 312.779C371.976 312.779 372.384 312.749 372.78 312.719C366.363 290.105 322.908 277.311 256.313 277.311Z" class="selected" fill="#8b572a" fill-opacity="1"></path></g></g></svg>