<svg xmlns="http://www.w3.org/2000/svg" viewBox="0 0 512 512" style="height: 512px; width: 512px;"><path d="M0 0h512v512H0z" fill="#000" fill-opacity="1"></path><g class="" transform="translate(0,0)" style="touch-action: none;"><g><path d="M252.094 19.438C234.002 19.375 216.546 29.258 208.969 47.875L208.969 57.563L197.593 55.063C183.277 51.893 171.801 53.913 164.218 58.906C156.633 63.9 152.044 71.804 151.873 84.344C151.743 93.884 153.803 100.164 156.686 104.344C159.568 108.524 163.359 111.016 168.592 112.406C179.057 115.186 195.262 112.049 209.686 103.656L215.654 100.186L220.717 104.844C229.122 112.588 235.227 115.914 241.277 117.094C247.329 118.274 254.323 117.412 264.717 114.219L274.559 111.187L276.622 121.28C279.317 134.438 291.532 144.687 305.747 144.687C318.984 144.687 329.417 135.659 333.06 123.219L335.278 115.687L343.061 116.53C351.916 117.52 362.471 112.485 368.061 106.187L374.061 99.437L381.029 105.219C399.639 120.706 416.489 122.179 428.312 116.687C440.132 111.193 448.492 98.085 447.562 77.905C446.682 59.078 436.592 47.457 422.062 42.093C407.53 36.729 388.302 38.483 370.78 50.311L363.344 55.343L358 48.093C350.962 38.508 340.91 32.608 331.28 31.093C321.652 29.577 312.793 32.021 305.906 39.499L298.5 47.529L291.72 38.969C281.277 25.804 266.506 19.487 252.094 19.437Z" class="selected" fill="transparent" fill-opacity="0"></path><path d="M65.22 119.968C37.8 203.65 25.784 289.07 28.812 376.19C68.362 393.42 110.234 394.295 152.249 394.19C154.602 383.117 156.804 371.65 158.843 359.97C126.741 361.648 94.749 362.49 64.53 350.846C62.2 283.966 71.447 229.224 92.53 163.816C119.848 170.316 147.54 172.426 175.78 171.283C175.71 159.568 175.393 148.727 174.75 138.973C137.582 137.247 101.157 130.331 65.22 119.973Z" class="" fill="#ffffff" fill-opacity="1"></path><path d="M213.22 122.938C206.65 126.228 199.85 128.758 193.03 130.344C196.122 163.8 194.977 208.736 190.844 257.438C186.067 313.718 176.978 373.938 164.406 424.156L434.25 424.156C424.318 371.591 415.438 312.546 410.656 257.436C406.786 212.818 405.423 171.321 408.626 137.719C397.849 136.437 386.579 132.077 375.688 124.499C368.19 130.487 358.734 134.644 348.438 135.249C340.978 151.496 325.018 163.374 305.75 163.374C286.106 163.374 268.91 151.514 261.406 134.436C253.146 136.321 245.413 136.943 237.686 135.436C229.116 133.766 221.218 129.422 213.219 122.936Z" class="" fill="#9b9b9b" fill-opacity="1"></path><path d="M134.844 442.844L116.22 491.25L474.906 491.25L453.186 442.844L134.846 442.844Z" class="" fill="#ffffff" fill-opacity="1"></path></g></g></svg>