<svg xmlns="http://www.w3.org/2000/svg" viewBox="0 0 512 512" style="height: 512px; width: 512px;"><path d="M0 0h512v512H0z" fill="#000" fill-opacity="1"></path><g class="" transform="translate(0,0)" style="touch-action: none;"><g><path d="M199 103L199 153L121 153L121 183L391 183L391 153L313 153L313 103L199 103Z" class="" fill="#ffffff" fill-opacity="1"></path><path d="M217 121L295 121L295 153L217 153L217 121Z" class="selected" fill="#4a4a4a" fill-opacity="1"></path><path d="M137.998 201L168.104 487L343.898 487L374.002 201L137.998 201Z" class="" fill="#9b9b9b" fill-opacity="1"></path><path d="M200.336 214.38L200.976 223.36L216.976 447.36L217.619 456.336L199.663 457.619L199.023 448.639L183.023 224.639L182.38 215.663L200.336 214.38Z" class="" fill="#4a4a4a" fill-opacity="1"></path><path d="M311.664 214.38L329.619 215.664L328.976 224.641L312.976 448.641L312.336 457.621L294.38 456.337L295.023 447.36L311.023 223.36L311.663 214.38Z" class="" fill="#ffffff" fill-opacity="1"></path><path d="M247 215L265 215L265 457L247 457L247 215Z" class="" fill="#9b9b9b" fill-opacity="1"></path></g></g></svg>