<svg xmlns="http://www.w3.org/2000/svg" viewBox="0 0 512 512" style="height: 512px; width: 512px;"><path d="M0 0h512v512H0z" fill="#000" fill-opacity="1"></path><g class="" transform="translate(0,0)" style="touch-action: none;"><g><path d="M341.28 22.78L254 123.75L317.156 90.094L321.594 87.719L326.031 90.124L344.345 100.062L341.282 22.78Z" class="selected" fill="#ffffff" fill-opacity="1"></path><path d="M129.814 46.563L154.189 176.97L242.907 129.688L129.813 46.563Z" class="" fill="#ffffff" fill-opacity="1"></path><path d="M321.53 108.97L83.345 235.905L192.156 293.5L429.626 167.75L321.531 108.97Z" class="" fill="#9b9b9b" fill-opacity="1"></path><path d="M364.28 153.656L389.875 166.686L192.562 270.626L125.687 234.938L151.031 221.531L192.563 243.721L364.283 153.657Z" class="" fill="#4a4a4a" fill-opacity="1"></path><path d="M456.47 171.876L465.562 195.906L491.782 173.25L456.469 171.875Z" class="" fill="#ffffff" fill-opacity="1"></path><path d="M440.687 183.031L199.47 310.78L193.688 394.156L465.75 249.344L440.687 183.031Z" class="" fill="#9b9b9b" fill-opacity="1"></path><path d="M106.125 202.595L16.562 226.78L53.438 246.344L59.531 230.064L60.781 226.75L63.907 225.094L106.127 202.594Z" class="" fill="#ffffff" fill-opacity="1"></path><path d="M71.687 250.907L42.875 327.907L174.719 398.063L180.874 308.688L71.686 250.908Z" class="" fill="#9b9b9b" fill-opacity="1"></path><path d="M407.031 301.782L232.781 394.532L287.688 497.972L325.5 358.093L467.97 384.718L407.03 301.778Z" class="" fill="#fff" fill-opacity="1"></path><path d="M106.314 382.846L86.876 427.658L144 402.876L106.312 382.844Z" class="" fill="#fff" fill-opacity="1"></path></g></g></svg>