<?xml version="1.0" encoding="UTF-8" standalone="no"?>
<svg
   xmlns:dc="http://purl.org/dc/elements/1.1/"
   xmlns:cc="http://web.resource.org/cc/"
   xmlns:rdf="http://www.w3.org/1999/02/22-rdf-syntax-ns#"
   xmlns:svg="http://www.w3.org/2000/svg"
   xmlns="http://www.w3.org/2000/svg"
   xmlns:xlink="http://www.w3.org/1999/xlink"
   xmlns:sodipodi="http://sodipodi.sourceforge.net/DTD/sodipodi-0.dtd"
   xmlns:inkscape="http://www.inkscape.org/namespaces/inkscape"
   height="660"
   width="600"
   version="1.0"
   id="svg2"
   sodipodi:version="0.32"
   inkscape:version="0.44"
   sodipodi:docname="Blason_ville_fr_Dijon_(Côte-d'Or).svg"
   sodipodi:docbase="C:\Documents and Settings\Bruno Vallette\Mes documents\Perso\Contributions Wikipédia Blasons\Communes"
   inkscape:export-filename="/Users/olivier/Desktop/Blason Rouge/Blason_Vide_3D.png"
   inkscape:export-xdpi="144"
   inkscape:export-ydpi="144">
  <metadata
     id="metadata49">
    <rdf:RDF>
      <cc:Work
         rdf:about="">
        <dc:format>image/svg+xml</dc:format>
        <dc:type
           rdf:resource="http://purl.org/dc/dcmitype/StillImage" />
        <dc:title>Gabarit d'un blason en pointe pour le projet Blasons de Wikipédia</dc:title>
        <dc:date>03-AUG-2006</dc:date>
        <dc:creator>
          <cc:Agent>
            <dc:title>Jérôme BLUM (wagner51)</dc:title>
          </cc:Agent>
        </dc:creator>
        <cc:license
           rdf:resource="http://web.resource.org/cc/PublicDomain" />
        <dc:language>fr</dc:language>
        <dc:subject>
          <rdf:Bag>
            <rdf:li>gabarit modèle blason projet wikipédia</rdf:li>
          </rdf:Bag>
        </dc:subject>
      </cc:Work>
      <cc:License
         rdf:about="http://web.resource.org/cc/PublicDomain">
        <cc:permits
           rdf:resource="http://web.resource.org/cc/Reproduction" />
        <cc:permits
           rdf:resource="http://web.resource.org/cc/Distribution" />
        <cc:permits
           rdf:resource="http://web.resource.org/cc/DerivativeWorks" />
      </cc:License>
    </rdf:RDF>
  </metadata>
  <sodipodi:namedview
     inkscape:window-height="719"
     inkscape:window-width="1024"
     inkscape:pageshadow="2"
     inkscape:pageopacity="0.0"
     guidetolerance="10.0"
     gridtolerance="10.0"
     objecttolerance="10.0"
     borderopacity="1.0"
     bordercolor="#666666"
     pagecolor="#ffffff"
     id="base"
     showgrid="false"
     height="660px"
     inkscape:zoom="0.79999367"
     inkscape:cx="300"
     inkscape:cy="334.37756"
     inkscape:window-x="-4"
     inkscape:window-y="-4"
     inkscape:current-layer="layer3" />
  <desc
     id="desc4">Flag of Canton of Valais (Wallis)</desc>
  <defs
     id="defs6">
    <linearGradient
       id="linearGradient2893">
      <stop
         style="stop-color:white;stop-opacity:0.3137255;"
         offset="0"
         id="stop2895" />
      <stop
         id="stop2897"
         offset="0.19"
         style="stop-color:white;stop-opacity:0.25098041;" />
      <stop
         style="stop-color:#6b6b6b;stop-opacity:0.1254902;"
         offset="0.60000002"
         id="stop2901" />
      <stop
         style="stop-color:black;stop-opacity:0.1254902;"
         offset="1"
         id="stop2899" />
    </linearGradient>
    <linearGradient
       id="linearGradient2885">
      <stop
         id="stop2887"
         offset="0"
         style="stop-color:white;stop-opacity:1;" />
      <stop
         style="stop-color:white;stop-opacity:1;"
         offset="0.22857143"
         id="stop2891" />
      <stop
         id="stop2889"
         offset="1"
         style="stop-color:black;stop-opacity:1;" />
    </linearGradient>
    <linearGradient
       id="linearGradient2955">
      <stop
         id="stop2867"
         offset="0"
         style="stop-color:#fd0000;stop-opacity:1;" />
      <stop
         style="stop-color:#e77275;stop-opacity:0.65882355;"
         offset="0.5"
         id="stop2873" />
      <stop
         style="stop-color:black;stop-opacity:0.32291666;"
         offset="1"
         id="stop2959" />
    </linearGradient>
    <radialGradient
       inkscape:collect="always"
       xlink:href="#linearGradient2955"
       id="radialGradient2961"
       cx="225.52438"
       cy="218.90099"
       fx="225.52438"
       fy="218.90099"
       r="300"
       gradientTransform="matrix(-4.167939e-4,2.182867,-1.884232,-3.599562e-4,615.5972,-289.1214)"
       gradientUnits="userSpaceOnUse" />
    <polygon
       id="star"
       transform="scale(53,53)"
       points="0,-1 0.58778525,0.80901699 -0.95105652,-0.30901699 0.95105652,-0.30901699 -0.58778525,0.80901699 0,-1 " />
    <clipPath
       id="clip">
      <path
         d="M 0,-200 L 0,600 L 300,600 L 300,-200 L 0,-200 z "
         id="path10" />
    </clipPath>
    <radialGradient
       inkscape:collect="always"
       xlink:href="#linearGradient2955"
       id="radialGradient1911"
       gradientUnits="userSpaceOnUse"
       gradientTransform="matrix(-4.167939e-4,2.182867,-1.884232,-3.599562e-4,615.5972,-289.1214)"
       cx="225.52438"
       cy="218.90099"
       fx="225.52438"
       fy="218.90099"
       r="300" />
    <radialGradient
       inkscape:collect="always"
       xlink:href="#linearGradient2955"
       id="radialGradient2865"
       gradientUnits="userSpaceOnUse"
       gradientTransform="matrix(0,1.748721,-1.593162,-1.049767e-7,551.7876,-191.2898)"
       cx="225.52438"
       cy="218.90099"
       fx="225.52438"
       fy="218.90099"
       r="300" />
    <radialGradient
       inkscape:collect="always"
       xlink:href="#linearGradient2955"
       id="radialGradient2871"
       gradientUnits="userSpaceOnUse"
       gradientTransform="matrix(0,1.386237,-1.323286,-5.741131e-8,-158.0823,-109.5408)"
       cx="225.52438"
       cy="218.90099"
       fx="225.52438"
       fy="218.90099"
       r="300" />
    <radialGradient
       inkscape:collect="always"
       xlink:href="#linearGradient2893"
       id="radialGradient3163"
       gradientUnits="userSpaceOnUse"
       gradientTransform="matrix(1.353218,0,0,1.348928,-77.62935,-85.74693)"
       cx="221.44487"
       cy="226.33101"
       fx="221.44487"
       fy="226.33101"
       r="300" />
  </defs>
  <g
     inkscape:groupmode="layer"
     id="layer3"
     inkscape:label="Fond écu"
     style="display:inline">
    <path
       id="path2855"
       style="fill:#e20909;fill-opacity:1;fill-rule:evenodd;stroke:black;stroke-width:3;stroke-linecap:butt;stroke-linejoin:miter;stroke-miterlimit:4;stroke-dasharray:none;stroke-opacity:1"
       d="M 300,658.5 C 300,658.5 598.50001,546.17969 598.50001,260.72817 C 598.50001,-24.723354 598.50001,2.1764765 598.50001,2.1764765 L 1.5,2.1764765 L 1.5,260.72817 C 1.5,546.17969 300,658.5 300,658.5 z "
       sodipodi:nodetypes="cccccc" />
    <rect
       style="opacity:1;color:black;fill:#2b5df2;fill-opacity:1;fill-rule:nonzero;stroke:black;stroke-width:3;stroke-linecap:butt;stroke-linejoin:miter;marker:none;marker-start:none;marker-mid:none;marker-end:none;stroke-miterlimit:4;stroke-dasharray:none;stroke-dashoffset:0;stroke-opacity:1;visibility:visible;display:inline;overflow:visible"
       id="rect2817"
       width="228.50009"
       height="146.99994"
       x="36.499897"
       y="36.5" />
    <rect
       style="opacity:1;color:black;fill:#2b5df2;fill-opacity:1;fill-rule:nonzero;stroke:black;stroke-width:3.00000024;stroke-linecap:butt;stroke-linejoin:miter;marker:none;marker-start:none;marker-mid:none;marker-end:none;stroke-miterlimit:4;stroke-dasharray:none;stroke-dashoffset:0;stroke-opacity:1;visibility:visible;display:inline;overflow:visible"
       id="rect2819"
       width="228.50009"
       height="146.99994"
       x="334.99991"
       y="36.500061" />
    <g
       id="g22797"
       transform="matrix(-1,0,0,-1,898.5,220)">
      <path
         id="rect19233"
         d="M 412.90625,36.5 L 563.5,132.53125 L 563.5,82.53125 L 491.3125,36.5 L 412.90625,36.5 z "
         style="opacity:1;color:black;fill:#fcef3c;fill-opacity:1;fill-rule:nonzero;stroke:black;stroke-width:3.00000238;stroke-linecap:butt;stroke-linejoin:miter;marker:none;marker-start:none;marker-mid:none;marker-end:none;stroke-miterlimit:4;stroke-dasharray:none;stroke-dashoffset:0;stroke-opacity:1;visibility:visible;display:inline;overflow:visible" />
      <path
         id="rect20120"
         d="M 335,136.8125 L 335,183.5 L 408.1875,183.5 L 335,136.8125 z "
         style="opacity:1;color:black;fill:#fcef3c;fill-opacity:1;fill-rule:nonzero;stroke:black;stroke-width:3.00000024;stroke-linecap:butt;stroke-linejoin:miter;marker:none;marker-start:none;marker-mid:none;marker-end:none;stroke-miterlimit:4;stroke-dasharray:none;stroke-dashoffset:0;stroke-opacity:1;visibility:visible;display:inline;overflow:visible" />
      <path
         id="path21012"
         d="M 335,36.8125 L 335,86.8125 L 486.59375,183.5 L 563.5,183.5 L 563.5,182.53125 L 335,36.8125 z "
         style="opacity:1;color:black;fill:#fcef3c;fill-opacity:1;fill-rule:nonzero;stroke:black;stroke-width:3.00000024;stroke-linecap:butt;stroke-linejoin:miter;marker:none;marker-start:none;marker-mid:none;marker-end:none;stroke-miterlimit:4;stroke-dasharray:none;stroke-dashoffset:0;stroke-opacity:1;visibility:visible;display:inline;overflow:visible" />
    </g>
  </g>
  <g
     inkscape:groupmode="layer"
     id="layer4"
     inkscape:label="Meubles"
     sodipodi:insensitive="true">
    <path
       style="fill:#fcef3c;fill-opacity:1;fill-rule:evenodd;stroke:black;stroke-width:2.00000024;stroke-linecap:butt;stroke-linejoin:miter;stroke-miterlimit:4;stroke-dasharray:none;stroke-opacity:1;display:inline"
       d="M 54.9375,36.5 C 54.919148,36.597768 54.890471,36.720795 54.875,36.8125 C 54.673231,38.130461 54.370041,39.526935 54.84375,41.9375 C 55.348448,43.984828 55.958829,45.404802 56.53125,46.96875 C 57.192796,48.774632 57.691616,50.059641 58.21875,51.59375 C 58.788432,53.387447 58.934784,54.560741 58.96875,55.09375 C 59.063376,56.159128 59.034982,57.025628 59,57.78125 L 58.28125,57.78125 C 58.089106,55.944863 58.039221,54.184312 57.46875,52.40625 C 56.973317,50.86207 56.813781,50.397491 55.90625,48.6875 C 55.619344,48.327477 55.075714,47.292436 54.65625,46.75 C 53.976905,45.871493 53.760401,45.44274 53.03125,44.71875 C 52.433854,44.12558 51.776325,43.43185 50.78125,42.71875 C 49.46128,41.998433 48.392784,41.827666 47.3125,41.96875 C 45.165507,42.565991 43.082966,44.002857 42.3125,46.1875 C 41.951592,47.688323 42.178234,49.258592 42.71875,50.71875 C 44.069361,53.503434 45.32985,54.856905 47.15625,55.9375 C 48.21644,56.423593 49.697223,57.024725 50.875,57.03125 C 50.342918,55.608515 50.043914,54.410592 49.8125,53.09375 C 49.767276,52.61679 49.954591,51.974653 50.3125,51.90625 C 50.86152,51.801326 51.494465,52.224419 52.1875,52.875 C 53.528792,54.083292 54.950048,55.308541 55.375,57.125 C 55.450183,57.333618 55.439686,57.567956 55.5,57.78125 L 52.46875,57.78125 L 52.46875,60.46875 L 57.21875,60.46875 C 56.421938,62.556499 53.548307,66.223824 52,67.28125 C 51.590698,67.560784 53.94076,67.109718 55,66.875 C 56.389311,66.567143 58.198588,65.065576 58.15625,65.59375 C 58.06839,66.689792 58.099866,66.681398 58.21875,67.625 C 58.589876,69.34948 58.688334,69.846703 59.15625,71.15625 C 59.377082,71.774287 59.563835,72.265102 59.6875,72.53125 C 59.904473,72.998207 60.16636,73.517119 60.59375,73.90625 L 60.75,74.09375 L 60.90625,73.90625 C 61.324932,73.514345 61.592606,73.019552 61.8125,72.53125 C 61.933016,72.263626 62.122919,71.774289 62.34375,71.15625 C 62.811666,69.846701 62.910126,69.349483 63.28125,67.625 C 63.400135,66.681395 63.431609,66.689792 63.34375,65.59375 C 63.301412,65.065576 65.110688,66.56714 66.5,66.875 C 67.559237,67.109721 69.909302,67.560786 69.5,67.28125 C 67.951696,66.223822 65.078003,62.556501 64.28125,60.46875 L 69.0625,60.46875 L 69.0625,57.78125 L 66,57.78125 C 66.060313,57.567956 66.049813,57.333618 66.125,57.125 C 66.549952,55.308541 67.971208,54.083292 69.3125,52.875 C 70.005535,52.224419 70.63848,51.801326 71.1875,51.90625 C 71.545409,51.974653 71.732727,52.61679 71.6875,53.09375 C 71.456086,54.410592 71.157082,55.608515 70.625,57.03125 C 71.802777,57.024725 73.283556,56.423593 74.34375,55.9375 C 76.17015,54.856905 77.430639,53.503434 78.78125,50.71875 C 79.321766,49.258592 79.548407,47.688323 79.1875,46.1875 C 78.417034,44.002857 76.334497,42.565991 74.1875,41.96875 C 73.107216,41.827666 72.03872,41.998433 70.71875,42.71875 C 69.723675,43.43185 69.066146,44.12558 68.46875,44.71875 C 67.739599,45.44274 67.523099,45.871493 66.84375,46.75 C 66.424286,47.292436 65.88066,48.327477 65.59375,48.6875 C 64.686219,50.397491 64.526682,50.86207 64.03125,52.40625 C 63.460779,54.184312 63.410894,55.944863 63.21875,57.78125 L 62.5,57.78125 C 62.465016,57.025629 62.436622,56.159127 62.53125,55.09375 C 62.565216,54.560742 62.711567,53.387445 63.28125,51.59375 C 63.808383,50.059643 64.307203,48.774631 64.96875,46.96875 C 65.541168,45.404803 66.151553,43.984829 66.65625,41.9375 C 67.129961,39.526934 66.82677,38.130461 66.625,36.8125 C 66.609529,36.720795 66.580852,36.597768 66.5625,36.5 L 54.9375,36.5 z M 114.9375,36.5 C 114.91915,36.597768 114.89047,36.720795 114.875,36.8125 C 114.67323,38.130461 114.37004,39.526935 114.84375,41.9375 C 115.34844,43.984828 115.95882,45.404802 116.53125,46.96875 C 117.19279,48.774632 117.69162,50.059641 118.21875,51.59375 C 118.78843,53.387447 118.93479,54.560741 118.96875,55.09375 C 119.06338,56.159128 119.03498,57.025628 119,57.78125 L 118.28125,57.78125 C 118.08911,55.944863 118.03922,54.184312 117.46875,52.40625 C 116.97332,50.86207 116.81378,50.397491 115.90625,48.6875 C 115.61934,48.327477 115.07572,47.292436 114.65625,46.75 C 113.97691,45.871493 113.7604,45.44274 113.03125,44.71875 C 112.43385,44.12558 111.77632,43.43185 110.78125,42.71875 C 109.46128,41.998433 108.39278,41.827666 107.3125,41.96875 C 105.1655,42.565991 103.08296,44.002857 102.3125,46.1875 C 101.95159,47.688323 102.17823,49.258592 102.71875,50.71875 C 104.06936,53.503434 105.32984,54.856905 107.15625,55.9375 C 108.21643,56.423593 109.69722,57.024725 110.875,57.03125 C 110.34292,55.608515 110.04391,54.410592 109.8125,53.09375 C 109.76728,52.61679 109.95459,51.974653 110.3125,51.90625 C 110.86152,51.801326 111.49447,52.224419 112.1875,52.875 C 113.5288,54.083292 114.95004,55.308541 115.375,57.125 C 115.45018,57.333618 115.43969,57.567956 115.5,57.78125 L 112.46875,57.78125 L 112.46875,60.46875 L 117.21875,60.46875 C 116.42194,62.556499 113.54831,66.223824 112,67.28125 C 111.5907,67.560784 113.94076,67.109718 115,66.875 C 116.38931,66.567143 118.19859,65.065576 118.15625,65.59375 C 118.06839,66.689792 118.09986,66.681398 118.21875,67.625 C 118.58987,69.34948 118.68833,69.846703 119.15625,71.15625 C 119.37708,71.774287 119.56383,72.265102 119.6875,72.53125 C 119.90447,72.998207 120.16636,73.517119 120.59375,73.90625 L 120.75,74.09375 L 120.90625,73.90625 C 121.32493,73.514345 121.59261,73.019552 121.8125,72.53125 C 121.93302,72.263626 122.12292,71.774289 122.34375,71.15625 C 122.81167,69.846701 122.91012,69.349483 123.28125,67.625 C 123.40013,66.681395 123.43161,66.689792 123.34375,65.59375 C 123.30141,65.065576 125.11069,66.56714 126.5,66.875 C 127.55924,67.109721 129.9093,67.560786 129.5,67.28125 C 127.9517,66.223822 125.078,62.556501 124.28125,60.46875 L 129.0625,60.46875 L 129.0625,57.78125 L 126,57.78125 C 126.06031,57.567956 126.04981,57.333618 126.125,57.125 C 126.54995,55.308541 127.97121,54.083292 129.3125,52.875 C 130.00553,52.224419 130.63847,51.801326 131.1875,51.90625 C 131.54541,51.974653 131.73274,52.61679 131.6875,53.09375 C 131.45609,54.410592 131.15708,55.608515 130.625,57.03125 C 131.80277,57.024725 133.28357,56.423593 134.34375,55.9375 C 136.17015,54.856905 137.43064,53.503434 138.78125,50.71875 C 139.32177,49.258592 139.5484,47.688323 139.1875,46.1875 C 138.41703,44.002857 136.33449,42.565991 134.1875,41.96875 C 133.10721,41.827666 132.03871,41.998433 130.71875,42.71875 C 129.72367,43.43185 129.06615,44.12558 128.46875,44.71875 C 127.7396,45.44274 127.5231,45.871493 126.84375,46.75 C 126.42429,47.292436 125.88066,48.327477 125.59375,48.6875 C 124.68622,50.397491 124.52668,50.86207 124.03125,52.40625 C 123.46078,54.184312 123.41089,55.944863 123.21875,57.78125 L 122.5,57.78125 C 122.46502,57.025629 122.43662,56.159127 122.53125,55.09375 C 122.56522,54.560742 122.71157,53.387445 123.28125,51.59375 C 123.80839,50.059643 124.3072,48.774631 124.96875,46.96875 C 125.54117,45.404803 126.15155,43.984829 126.65625,41.9375 C 127.12996,39.526934 126.82677,38.130461 126.625,36.8125 C 126.60953,36.720795 126.58085,36.597768 126.5625,36.5 L 114.9375,36.5 z M 174.9375,36.5 C 174.91915,36.597768 174.89047,36.720795 174.875,36.8125 C 174.67322,38.130461 174.37004,39.526935 174.84375,41.9375 C 175.34844,43.984828 175.95882,45.404802 176.53125,46.96875 C 177.19279,48.774632 177.69162,50.059641 178.21875,51.59375 C 178.78843,53.387447 178.93479,54.560741 178.96875,55.09375 C 179.06339,56.159128 179.03498,57.025628 179,57.78125 L 178.28125,57.78125 C 178.08911,55.944863 178.03922,54.184312 177.46875,52.40625 C 176.97331,50.86207 176.81378,50.397491 175.90625,48.6875 C 175.61933,48.327477 175.07572,47.292436 174.65625,46.75 C 173.9769,45.871493 173.7604,45.44274 173.03125,44.71875 C 172.43386,44.12558 171.77632,43.43185 170.78125,42.71875 C 169.46128,41.998433 168.39278,41.827666 167.3125,41.96875 C 165.1655,42.565991 163.08296,44.002857 162.3125,46.1875 C 161.95159,47.688323 162.17823,49.258592 162.71875,50.71875 C 164.06936,53.503434 165.32984,54.856905 167.15625,55.9375 C 168.21643,56.423593 169.69722,57.024725 170.875,57.03125 C 170.34291,55.608515 170.04391,54.410592 169.8125,53.09375 C 169.76728,52.61679 169.95459,51.974653 170.3125,51.90625 C 170.86152,51.801326 171.49447,52.224419 172.1875,52.875 C 173.5288,54.083292 174.95004,55.308541 175.375,57.125 C 175.45018,57.333618 175.43969,57.567956 175.5,57.78125 L 172.46875,57.78125 L 172.46875,60.46875 L 177.21875,60.46875 C 176.42194,62.556499 173.54831,66.223824 172,67.28125 C 171.59071,67.560784 173.94076,67.109718 175,66.875 C 176.3893,66.567143 178.19859,65.065576 178.15625,65.59375 C 178.06839,66.689792 178.09986,66.681398 178.21875,67.625 C 178.58987,69.34948 178.68833,69.846703 179.15625,71.15625 C 179.37708,71.774287 179.56383,72.265102 179.6875,72.53125 C 179.90447,72.998207 180.16636,73.517119 180.59375,73.90625 L 180.75,74.09375 L 180.90625,73.90625 C 181.32492,73.514345 181.59261,73.019552 181.8125,72.53125 C 181.93302,72.263626 182.12292,71.774289 182.34375,71.15625 C 182.81167,69.846701 182.91012,69.349483 183.28125,67.625 C 183.40014,66.681395 183.43161,66.689792 183.34375,65.59375 C 183.30141,65.065576 185.11069,66.56714 186.5,66.875 C 187.55923,67.109721 189.9093,67.560786 189.5,67.28125 C 187.9517,66.223822 185.078,62.556501 184.28125,60.46875 L 189.0625,60.46875 L 189.0625,57.78125 L 186,57.78125 C 186.06031,57.567956 186.04981,57.333618 186.125,57.125 C 186.54995,55.308541 187.9712,54.083292 189.3125,52.875 C 190.00553,52.224419 190.63848,51.801326 191.1875,51.90625 C 191.54541,51.974653 191.73273,52.61679 191.6875,53.09375 C 191.45609,54.410592 191.15709,55.608515 190.625,57.03125 C 191.80277,57.024725 193.28356,56.423593 194.34375,55.9375 C 196.17015,54.856905 197.43065,53.503434 198.78125,50.71875 C 199.32177,49.258592 199.54841,47.688323 199.1875,46.1875 C 198.41703,44.002857 196.33449,42.565991 194.1875,41.96875 C 193.10721,41.827666 192.03873,41.998433 190.71875,42.71875 C 189.72367,43.43185 189.06615,44.12558 188.46875,44.71875 C 187.7396,45.44274 187.5231,45.871493 186.84375,46.75 C 186.42429,47.292436 185.88066,48.327477 185.59375,48.6875 C 184.68622,50.397491 184.52667,50.86207 184.03125,52.40625 C 183.46078,54.184312 183.41088,55.944863 183.21875,57.78125 L 182.5,57.78125 C 182.46501,57.025629 182.43662,56.159127 182.53125,55.09375 C 182.56522,54.560742 182.71157,53.387445 183.28125,51.59375 C 183.80838,50.059643 184.3072,48.774631 184.96875,46.96875 C 185.54117,45.404803 186.15155,43.984829 186.65625,41.9375 C 187.12996,39.526934 186.82677,38.130461 186.625,36.8125 C 186.60953,36.720795 186.58085,36.597768 186.5625,36.5 L 174.9375,36.5 z M 234.9375,36.5 C 234.91915,36.597768 234.89047,36.720795 234.875,36.8125 C 234.67323,38.130461 234.37004,39.526935 234.84375,41.9375 C 235.34845,43.984828 235.95882,45.404802 236.53125,46.96875 C 237.19279,48.774632 237.69162,50.059641 238.21875,51.59375 C 238.78843,53.387447 238.93479,54.560741 238.96875,55.09375 C 239.06338,56.159128 239.03498,57.025628 239,57.78125 L 238.28125,57.78125 C 238.0891,55.944863 238.03922,54.184312 237.46875,52.40625 C 236.97332,50.86207 236.81378,50.397491 235.90625,48.6875 C 235.61934,48.327477 235.07572,47.292436 234.65625,46.75 C 233.97691,45.871493 233.7604,45.44274 233.03125,44.71875 C 232.43385,44.12558 231.77632,43.43185 230.78125,42.71875 C 229.46128,41.998433 228.39278,41.827666 227.3125,41.96875 C 225.16549,42.565991 223.08296,44.002857 222.3125,46.1875 C 221.95159,47.688323 222.17823,49.258592 222.71875,50.71875 C 224.06935,53.503434 225.32984,54.856905 227.15625,55.9375 C 228.21642,56.423593 229.69722,57.024725 230.875,57.03125 C 230.34292,55.608515 230.04391,54.410592 229.8125,53.09375 C 229.76728,52.61679 229.95459,51.974653 230.3125,51.90625 C 230.86152,51.801326 231.49447,52.224419 232.1875,52.875 C 233.5288,54.083292 234.95004,55.308541 235.375,57.125 C 235.45018,57.333618 235.43969,57.567956 235.5,57.78125 L 232.46875,57.78125 L 232.46875,60.46875 L 237.21875,60.46875 C 236.42193,62.556499 233.54831,66.223824 232,67.28125 C 231.5907,67.560784 233.94076,67.109718 235,66.875 C 236.38931,66.567143 238.19859,65.065576 238.15625,65.59375 C 238.06839,66.689792 238.09986,66.681398 238.21875,67.625 C 238.58987,69.34948 238.68833,69.846703 239.15625,71.15625 C 239.37708,71.774287 239.56383,72.265102 239.6875,72.53125 C 239.90447,72.998207 240.16636,73.517119 240.59375,73.90625 L 240.75,74.09375 L 240.90625,73.90625 C 241.32493,73.514345 241.59261,73.019552 241.8125,72.53125 C 241.93301,72.263626 242.12292,71.774289 242.34375,71.15625 C 242.81166,69.846701 242.91012,69.349483 243.28125,67.625 C 243.40013,66.681395 243.43161,66.689792 243.34375,65.59375 C 243.3014,65.065576 245.11069,66.56714 246.5,66.875 C 247.55924,67.109721 249.9093,67.560786 249.5,67.28125 C 247.9517,66.223822 245.078,62.556501 244.28125,60.46875 L 249.0625,60.46875 L 249.0625,57.78125 L 246,57.78125 C 246.06032,57.567956 246.04982,57.333618 246.125,57.125 C 246.54995,55.308541 247.97121,54.083292 249.3125,52.875 C 250.00553,52.224419 250.63848,51.801326 251.1875,51.90625 C 251.54541,51.974653 251.73273,52.61679 251.6875,53.09375 C 251.45609,54.410592 251.15708,55.608515 250.625,57.03125 C 251.80277,57.024725 253.28355,56.423593 254.34375,55.9375 C 256.17015,54.856905 257.43064,53.503434 258.78125,50.71875 C 259.32177,49.258592 259.54841,47.688323 259.1875,46.1875 C 258.41703,44.002857 256.33448,42.565991 254.1875,41.96875 C 253.10721,41.827666 252.03872,41.998433 250.71875,42.71875 C 249.72367,43.43185 249.06615,44.12558 248.46875,44.71875 C 247.7396,45.44274 247.52311,45.871493 246.84375,46.75 C 246.42429,47.292436 245.88066,48.327477 245.59375,48.6875 C 244.68622,50.397491 244.52668,50.86207 244.03125,52.40625 C 243.46078,54.184312 243.41089,55.944863 243.21875,57.78125 L 242.5,57.78125 C 242.46502,57.025629 242.43662,56.159127 242.53125,55.09375 C 242.56523,54.560742 242.71157,53.387445 243.28125,51.59375 C 243.80839,50.059643 244.3072,48.774631 244.96875,46.96875 C 245.54117,45.404803 246.15155,43.984829 246.65625,41.9375 C 247.12995,39.526934 246.82677,38.130461 246.625,36.8125 C 246.60953,36.720795 246.58085,36.597768 246.5625,36.5 L 234.9375,36.5 z M 90.75,65.90625 L 90.53125,66.1875 C 89.050321,67.801507 87.863709,69.320247 86.90625,70.96875 C 85.804636,72.816833 85.135673,75.267333 84.875,76.8125 C 84.673231,78.130461 84.370041,79.526935 84.84375,81.9375 C 85.348444,83.984829 85.958829,85.404802 86.53125,86.96875 C 87.192799,88.774632 87.691616,90.059641 88.21875,91.59375 C 88.788432,93.387447 88.934784,94.560741 88.96875,95.09375 C 89.063376,96.159124 89.034982,97.025628 89,97.78125 L 88.28125,97.78125 C 88.089106,95.94486 88.039221,94.184312 87.46875,92.40625 C 86.973321,90.862071 86.813781,90.397491 85.90625,88.6875 C 85.619344,88.327478 85.075714,87.292436 84.65625,86.75 C 83.976905,85.871498 83.760401,85.44274 83.03125,84.71875 C 82.433851,84.125581 81.776325,83.43185 80.78125,82.71875 C 79.461283,81.998434 78.392784,81.827666 77.3125,81.96875 C 75.165507,82.565995 73.082966,84.002857 72.3125,86.1875 C 71.951589,87.688327 72.178234,89.258592 72.71875,90.71875 C 74.069357,93.503435 75.32985,94.856905 77.15625,95.9375 C 78.21644,96.423589 79.697223,97.024725 80.875,97.03125 C 80.342914,95.60852 80.043914,94.410592 79.8125,93.09375 C 79.767276,92.61679 79.954591,91.974653 80.3125,91.90625 C 80.861524,91.801322 81.494465,92.224419 82.1875,92.875 C 83.528788,94.083288 84.950048,95.308541 85.375,97.125 C 85.450183,97.333618 85.439686,97.567956 85.5,97.78125 L 82.46875,97.78125 L 82.46875,100.46875 L 87.21875,100.46875 C 86.421938,102.5565 83.548307,106.22383 82,107.28125 C 81.590695,107.56079 83.94076,107.10972 85,106.875 C 86.389315,106.56714 88.198588,105.06558 88.15625,105.59375 C 88.06839,106.68979 88.099866,106.68139 88.21875,107.625 C 88.589872,109.34948 88.688334,109.8467 89.15625,111.15625 C 89.377082,111.77429 89.563835,112.2651 89.6875,112.53125 C 89.904473,112.99821 90.16636,113.51712 90.59375,113.90625 L 90.75,114.09375 L 90.90625,113.90625 C 91.324935,113.51434 91.592606,113.01955 91.8125,112.53125 C 91.933016,112.26362 92.122919,111.77429 92.34375,111.15625 C 92.811666,109.8467 92.910126,109.34948 93.28125,107.625 C 93.400135,106.68139 93.431609,106.68979 93.34375,105.59375 C 93.301412,105.06558 95.110688,106.56714 96.5,106.875 C 97.559237,107.10972 99.909302,107.56079 99.5,107.28125 C 97.951696,106.22383 95.078003,102.5565 94.28125,100.46875 L 99.0625,100.46875 L 99.0625,97.78125 L 96,97.78125 C 96.060313,97.567956 96.049813,97.333618 96.125,97.125 C 96.549952,95.308541 97.971208,94.083288 99.3125,92.875 C 100.00553,92.224419 100.63848,91.801322 101.1875,91.90625 C 101.54541,91.974653 101.73273,92.61679 101.6875,93.09375 C 101.45609,94.410592 101.15708,95.60852 100.625,97.03125 C 101.80277,97.024725 103.28356,96.423589 104.34375,95.9375 C 106.17015,94.856905 107.43064,93.503435 108.78125,90.71875 C 109.32177,89.258592 109.5484,87.688327 109.1875,86.1875 C 108.41703,84.002857 106.33449,82.565995 104.1875,81.96875 C 103.10721,81.827666 102.03872,81.998434 100.71875,82.71875 C 99.723674,83.43185 99.066146,84.125581 98.46875,84.71875 C 97.739599,85.44274 97.523099,85.871498 96.84375,86.75 C 96.424286,87.292436 95.88066,88.327478 95.59375,88.6875 C 94.686219,90.397491 94.526682,90.862071 94.03125,92.40625 C 93.460779,94.184312 93.41089,95.94486 93.21875,97.78125 L 92.5,97.78125 C 92.46502,97.025629 92.436622,96.159127 92.53125,95.09375 C 92.565216,94.560739 92.711567,93.387445 93.28125,91.59375 C 93.808383,90.059643 94.307203,88.774631 94.96875,86.96875 C 95.541168,85.404803 96.151553,83.984829 96.65625,81.9375 C 97.129961,79.526935 96.82677,78.130461 96.625,76.8125 C 96.364326,75.267333 95.695361,72.816833 94.59375,70.96875 C 93.640215,69.326995 92.47236,67.825169 91,66.21875 L 90.75,65.90625 z M 150.75,65.90625 L 150.53125,66.1875 C 149.05033,67.801507 147.86371,69.320247 146.90625,70.96875 C 145.80465,72.816833 145.13567,75.267333 144.875,76.8125 C 144.67322,78.130461 144.37004,79.526935 144.84375,81.9375 C 145.34844,83.984829 145.95882,85.404802 146.53125,86.96875 C 147.19279,88.774632 147.69162,90.059641 148.21875,91.59375 C 148.78843,93.387447 148.93479,94.560741 148.96875,95.09375 C 149.06339,96.159124 149.03498,97.025628 149,97.78125 L 148.28125,97.78125 C 148.08911,95.94486 148.03922,94.184312 147.46875,92.40625 C 146.97331,90.862071 146.81378,90.397491 145.90625,88.6875 C 145.61933,88.327478 145.07572,87.292436 144.65625,86.75 C 143.9769,85.871498 143.7604,85.44274 143.03125,84.71875 C 142.43386,84.125581 141.77632,83.43185 140.78125,82.71875 C 139.46128,81.998434 138.39278,81.827666 137.3125,81.96875 C 135.1655,82.565995 133.08296,84.002857 132.3125,86.1875 C 131.95159,87.688327 132.17823,89.258592 132.71875,90.71875 C 134.06936,93.503435 135.32984,94.856905 137.15625,95.9375 C 138.21643,96.423589 139.69722,97.024725 140.875,97.03125 C 140.34291,95.60852 140.04391,94.410592 139.8125,93.09375 C 139.76728,92.61679 139.95459,91.974653 140.3125,91.90625 C 140.86152,91.801322 141.49447,92.224419 142.1875,92.875 C 143.5288,94.083288 144.95004,95.308541 145.375,97.125 C 145.45018,97.333618 145.43969,97.567956 145.5,97.78125 L 142.46875,97.78125 L 142.46875,100.46875 L 147.21875,100.46875 C 146.42194,102.5565 143.54831,106.22383 142,107.28125 C 141.59071,107.56079 143.94076,107.10972 145,106.875 C 146.3893,106.56714 148.19859,105.06558 148.15625,105.59375 C 148.06839,106.68979 148.09986,106.68139 148.21875,107.625 C 148.58987,109.34948 148.68833,109.8467 149.15625,111.15625 C 149.37708,111.77429 149.56383,112.2651 149.6875,112.53125 C 149.90447,112.99821 150.16636,113.51712 150.59375,113.90625 L 150.75,114.09375 L 150.90625,113.90625 C 151.32492,113.51434 151.59261,113.01955 151.8125,112.53125 C 151.93302,112.26362 152.12292,111.77429 152.34375,111.15625 C 152.81167,109.8467 152.91012,109.34948 153.28125,107.625 C 153.40014,106.68139 153.43161,106.68979 153.34375,105.59375 C 153.30141,105.06558 155.11069,106.56714 156.5,106.875 C 157.55923,107.10972 159.9093,107.56079 159.5,107.28125 C 157.9517,106.22383 155.078,102.5565 154.28125,100.46875 L 159.0625,100.46875 L 159.0625,97.78125 L 156,97.78125 C 156.06031,97.567956 156.04981,97.333618 156.125,97.125 C 156.54995,95.308541 157.9712,94.083288 159.3125,92.875 C 160.00553,92.224419 160.63848,91.801322 161.1875,91.90625 C 161.54541,91.974653 161.73273,92.61679 161.6875,93.09375 C 161.45609,94.410592 161.15709,95.60852 160.625,97.03125 C 161.80277,97.024725 163.28356,96.423589 164.34375,95.9375 C 166.17015,94.856905 167.43065,93.503435 168.78125,90.71875 C 169.32177,89.258592 169.54841,87.688327 169.1875,86.1875 C 168.41703,84.002857 166.33449,82.565995 164.1875,81.96875 C 163.10721,81.827666 162.03873,81.998434 160.71875,82.71875 C 159.72367,83.43185 159.06615,84.125581 158.46875,84.71875 C 157.7396,85.44274 157.5231,85.871498 156.84375,86.75 C 156.42429,87.292436 155.88066,88.327478 155.59375,88.6875 C 154.68622,90.397491 154.52667,90.862071 154.03125,92.40625 C 153.46078,94.184312 153.41088,95.94486 153.21875,97.78125 L 152.5,97.78125 C 152.46501,97.025629 152.43662,96.159127 152.53125,95.09375 C 152.56522,94.560739 152.71157,93.387445 153.28125,91.59375 C 153.80838,90.059643 154.3072,88.774631 154.96875,86.96875 C 155.54117,85.404803 156.15155,83.984829 156.65625,81.9375 C 157.12996,79.526935 156.82677,78.130461 156.625,76.8125 C 156.36432,75.267333 155.69536,72.816833 154.59375,70.96875 C 153.64021,69.326995 152.47236,67.825169 151,66.21875 L 150.75,65.90625 z M 210.75,65.90625 L 210.53125,66.1875 C 209.05033,67.801507 207.86371,69.320247 206.90625,70.96875 C 205.80465,72.816833 205.13567,75.267333 204.875,76.8125 C 204.67322,78.130461 204.37004,79.526935 204.84375,81.9375 C 205.34844,83.984829 205.95882,85.404802 206.53125,86.96875 C 207.19279,88.774632 207.69162,90.059641 208.21875,91.59375 C 208.78843,93.387447 208.93479,94.560741 208.96875,95.09375 C 209.06339,96.159124 209.03498,97.025628 209,97.78125 L 208.28125,97.78125 C 208.08911,95.94486 208.03922,94.184312 207.46875,92.40625 C 206.97331,90.862071 206.81378,90.397491 205.90625,88.6875 C 205.61933,88.327478 205.07572,87.292436 204.65625,86.75 C 203.9769,85.871498 203.7604,85.44274 203.03125,84.71875 C 202.43386,84.125581 201.77632,83.43185 200.78125,82.71875 C 199.46128,81.998434 198.39278,81.827666 197.3125,81.96875 C 195.1655,82.565995 193.08296,84.002857 192.3125,86.1875 C 191.95159,87.688327 192.17823,89.258592 192.71875,90.71875 C 194.06936,93.503435 195.32984,94.856905 197.15625,95.9375 C 198.21643,96.423589 199.69722,97.024725 200.875,97.03125 C 200.34291,95.60852 200.04391,94.410592 199.8125,93.09375 C 199.76728,92.61679 199.95459,91.974653 200.3125,91.90625 C 200.86152,91.801322 201.49447,92.224419 202.1875,92.875 C 203.5288,94.083288 204.95004,95.308541 205.375,97.125 C 205.45018,97.333618 205.43969,97.567956 205.5,97.78125 L 202.46875,97.78125 L 202.46875,100.46875 L 207.21875,100.46875 C 206.42194,102.5565 203.54831,106.22383 202,107.28125 C 201.59071,107.56079 203.94076,107.10972 205,106.875 C 206.3893,106.56714 208.19859,105.06558 208.15625,105.59375 C 208.06839,106.68979 208.09986,106.68139 208.21875,107.625 C 208.58987,109.34948 208.68833,109.8467 209.15625,111.15625 C 209.37708,111.77429 209.56383,112.2651 209.6875,112.53125 C 209.90447,112.99821 210.16636,113.51712 210.59375,113.90625 L 210.75,114.09375 L 210.90625,113.90625 C 211.32492,113.51434 211.59261,113.01955 211.8125,112.53125 C 211.93302,112.26362 212.12292,111.77429 212.34375,111.15625 C 212.81167,109.8467 212.91012,109.34948 213.28125,107.625 C 213.40014,106.68139 213.43161,106.68979 213.34375,105.59375 C 213.30141,105.06558 215.11069,106.56714 216.5,106.875 C 217.55923,107.10972 219.9093,107.56079 219.5,107.28125 C 217.9517,106.22383 215.078,102.5565 214.28125,100.46875 L 219.0625,100.46875 L 219.0625,97.78125 L 216,97.78125 C 216.06031,97.567956 216.04981,97.333618 216.125,97.125 C 216.54995,95.308541 217.9712,94.083288 219.3125,92.875 C 220.00553,92.224419 220.63848,91.801322 221.1875,91.90625 C 221.54541,91.974653 221.73273,92.61679 221.6875,93.09375 C 221.45609,94.410592 221.15709,95.60852 220.625,97.03125 C 221.80277,97.024725 223.28356,96.423589 224.34375,95.9375 C 226.17015,94.856905 227.43065,93.503435 228.78125,90.71875 C 229.32177,89.258592 229.54841,87.688327 229.1875,86.1875 C 228.41703,84.002857 226.33449,82.565995 224.1875,81.96875 C 223.10721,81.827666 222.03873,81.998434 220.71875,82.71875 C 219.72367,83.43185 219.06615,84.125581 218.46875,84.71875 C 217.7396,85.44274 217.5231,85.871498 216.84375,86.75 C 216.42429,87.292436 215.88066,88.327478 215.59375,88.6875 C 214.68622,90.397491 214.52667,90.862071 214.03125,92.40625 C 213.46078,94.184312 213.41088,95.94486 213.21875,97.78125 L 212.5,97.78125 C 212.46501,97.025629 212.43662,96.159127 212.53125,95.09375 C 212.56522,94.560739 212.71157,93.387445 213.28125,91.59375 C 213.80838,90.059643 214.3072,88.774631 214.96875,86.96875 C 215.54117,85.404803 216.15155,83.984829 216.65625,81.9375 C 217.12996,79.526935 216.82677,78.130461 216.625,76.8125 C 216.36432,75.267333 215.69536,72.816833 214.59375,70.96875 C 213.64021,69.326995 212.47236,67.825169 211,66.21875 L 210.75,65.90625 z M 36.5,76.21875 L 36.5,82.5 C 36.551194,82.311229 36.60694,82.137529 36.65625,81.9375 C 37.129958,79.526935 36.82677,78.130461 36.625,76.8125 C 36.595542,76.637884 36.539922,76.414314 36.5,76.21875 z M 265,76.21875 C 264.96008,76.414314 264.90446,76.637884 264.875,76.8125 C 264.67322,78.130461 264.37004,79.526935 264.84375,81.9375 C 264.89306,82.137529 264.94881,82.311229 265,82.5 L 265,76.21875 z M 43.375,81.9375 C 42.556867,81.959773 41.708727,82.178513 40.71875,82.71875 C 39.723675,83.43185 39.066146,84.125581 38.46875,84.71875 C 37.739599,85.44274 37.523095,85.871498 36.84375,86.75 C 36.741084,86.882764 36.611958,87.075337 36.5,87.25 L 36.5,96.125 C 37.122829,94.835137 38.235221,93.845458 39.3125,92.875 C 40.005535,92.224419 40.63848,91.801322 41.1875,91.90625 C 41.545409,91.974653 41.732723,92.61679 41.6875,93.09375 C 41.456086,94.410592 41.157082,95.60852 40.625,97.03125 C 41.802777,97.024725 43.28356,96.423589 44.34375,95.9375 C 46.17015,94.856905 47.430639,93.503435 48.78125,90.71875 C 49.321766,89.258592 49.548407,87.688327 49.1875,86.1875 C 48.417034,84.002857 46.334497,82.565995 44.1875,81.96875 C 43.917429,81.933479 43.647711,81.930076 43.375,81.9375 z M 258.125,81.9375 C 257.85229,81.930076 257.58257,81.933479 257.3125,81.96875 C 255.16549,82.565995 253.08296,84.002857 252.3125,86.1875 C 251.95159,87.688327 252.17823,89.258592 252.71875,90.71875 C 254.06936,93.503435 255.32984,94.856905 257.15625,95.9375 C 258.21642,96.423589 259.69722,97.024725 260.875,97.03125 C 260.34293,95.60852 260.04391,94.410592 259.8125,93.09375 C 259.76728,92.61679 259.95459,91.974653 260.3125,91.90625 C 260.86151,91.801322 261.49447,92.224419 262.1875,92.875 C 263.2648,93.845458 264.37717,94.835137 265,96.125 L 265,87.25 C 264.88804,87.075337 264.75892,86.882764 264.65625,86.75 C 263.97692,85.871498 263.7604,85.44274 263.03125,84.71875 C 262.43384,84.125581 261.77632,83.43185 260.78125,82.71875 C 259.79127,82.178513 258.94313,81.959773 258.125,81.9375 z M 36.5,97.78125 L 36.5,100.46875 L 39.0625,100.46875 L 39.0625,97.78125 L 36.5,97.78125 z M 262.46875,97.78125 L 262.46875,100.46875 L 265,100.46875 L 265,97.78125 L 262.46875,97.78125 z M 36.5,104.125 L 36.5,106.875 C 37.55924,107.10972 39.909302,107.56079 39.5,107.28125 C 38.701296,106.73577 37.537046,105.48441 36.5,104.125 z M 265,104.125 C 263.96296,105.48441 262.79871,106.73577 262,107.28125 C 261.59069,107.56079 263.94076,107.10972 265,106.875 L 265,104.125 z M 60.75,105.90625 L 60.53125,106.1875 C 59.050321,107.80151 57.863709,109.32025 56.90625,110.96875 C 55.80464,112.81683 55.135673,115.26733 54.875,116.8125 C 54.673231,118.13046 54.370041,119.52694 54.84375,121.9375 C 55.348448,123.98483 55.958829,125.4048 56.53125,126.96875 C 57.192796,128.77463 57.691616,130.05964 58.21875,131.59375 C 58.788432,133.38744 58.934784,134.56074 58.96875,135.09375 C 59.063376,136.15913 59.034982,137.02563 59,137.78125 L 58.28125,137.78125 C 58.089106,135.94486 58.039221,134.18431 57.46875,132.40625 C 56.973317,130.86207 56.813781,130.3975 55.90625,128.6875 C 55.619344,128.32748 55.075714,127.29244 54.65625,126.75 C 53.976905,125.87149 53.760401,125.44274 53.03125,124.71875 C 52.433854,124.12558 51.776325,123.43185 50.78125,122.71875 C 49.46128,121.99843 48.392784,121.82767 47.3125,121.96875 C 45.165507,122.56599 43.082966,124.00285 42.3125,126.1875 C 41.951592,127.68832 42.178234,129.25859 42.71875,130.71875 C 44.069361,133.50343 45.32985,134.85691 47.15625,135.9375 C 48.21644,136.4236 49.697223,137.02472 50.875,137.03125 C 50.342918,135.60853 50.043914,134.4106 49.8125,133.09375 C 49.767276,132.61679 49.954591,131.97466 50.3125,131.90625 C 50.86152,131.80133 51.494465,132.22442 52.1875,132.875 C 53.528792,134.08329 54.950048,135.30854 55.375,137.125 C 55.450183,137.33362 55.439686,137.56795 55.5,137.78125 L 52.46875,137.78125 L 52.46875,140.46875 L 57.21875,140.46875 C 56.421938,142.55649 53.548307,146.22383 52,147.28125 C 51.590698,147.5608 53.94076,147.10972 55,146.875 C 56.389311,146.56714 58.198588,145.06558 58.15625,145.59375 C 58.06839,146.68979 58.099866,146.68139 58.21875,147.625 C 58.589876,149.34948 58.688334,149.8467 59.15625,151.15625 C 59.377082,151.77429 59.563835,152.2651 59.6875,152.53125 C 59.904473,152.99821 60.16636,153.51712 60.59375,153.90625 L 60.75,154.09375 L 60.90625,153.90625 C 61.324932,153.51433 61.592606,153.01955 61.8125,152.53125 C 61.933016,152.26362 62.122919,151.77429 62.34375,151.15625 C 62.811666,149.8467 62.910126,149.34948 63.28125,147.625 C 63.400135,146.68139 63.431609,146.68979 63.34375,145.59375 C 63.301412,145.06558 65.110688,146.56714 66.5,146.875 C 67.559237,147.10972 69.909302,147.56079 69.5,147.28125 C 67.951696,146.22384 65.078003,142.5565 64.28125,140.46875 L 69.0625,140.46875 L 69.0625,137.78125 L 66,137.78125 C 66.060313,137.56795 66.049813,137.33362 66.125,137.125 C 66.549952,135.30854 67.971208,134.08329 69.3125,132.875 C 70.005535,132.22442 70.63848,131.80133 71.1875,131.90625 C 71.545409,131.97466 71.732727,132.61679 71.6875,133.09375 C 71.456086,134.4106 71.157082,135.60853 70.625,137.03125 C 71.802777,137.02472 73.283556,136.4236 74.34375,135.9375 C 76.17015,134.85691 77.430639,133.50343 78.78125,130.71875 C 79.321766,129.25859 79.548407,127.68832 79.1875,126.1875 C 78.417034,124.00285 76.334497,122.56599 74.1875,121.96875 C 73.107216,121.82767 72.03872,121.99843 70.71875,122.71875 C 69.723675,123.43185 69.066146,124.12558 68.46875,124.71875 C 67.739599,125.44274 67.523099,125.87149 66.84375,126.75 C 66.424286,127.29244 65.88066,128.32748 65.59375,128.6875 C 64.686219,130.3975 64.526682,130.86207 64.03125,132.40625 C 63.460779,134.18431 63.410894,135.94486 63.21875,137.78125 L 62.5,137.78125 C 62.465016,137.02563 62.436622,136.15913 62.53125,135.09375 C 62.565216,134.56074 62.711567,133.38744 63.28125,131.59375 C 63.808383,130.05964 64.307203,128.77463 64.96875,126.96875 C 65.541168,125.4048 66.151553,123.98483 66.65625,121.9375 C 67.129961,119.52694 66.82677,118.13046 66.625,116.8125 C 66.364326,115.26733 65.695361,112.81683 64.59375,110.96875 C 63.640215,109.32699 62.47236,107.82517 61,106.21875 L 60.75,105.90625 z M 120.75,105.90625 L 120.53125,106.1875 C 119.05032,107.80151 117.86371,109.32025 116.90625,110.96875 C 115.80464,112.81683 115.13567,115.26733 114.875,116.8125 C 114.67323,118.13046 114.37004,119.52694 114.84375,121.9375 C 115.34844,123.98483 115.95882,125.4048 116.53125,126.96875 C 117.19279,128.77463 117.69162,130.05964 118.21875,131.59375 C 118.78843,133.38744 118.93479,134.56074 118.96875,135.09375 C 119.06338,136.15913 119.03498,137.02563 119,137.78125 L 118.28125,137.78125 C 118.08911,135.94486 118.03922,134.18431 117.46875,132.40625 C 116.97332,130.86207 116.81378,130.3975 115.90625,128.6875 C 115.61934,128.32748 115.07572,127.29244 114.65625,126.75 C 113.97691,125.87149 113.7604,125.44274 113.03125,124.71875 C 112.43385,124.12558 111.77632,123.43185 110.78125,122.71875 C 109.46128,121.99843 108.39278,121.82767 107.3125,121.96875 C 105.1655,122.56599 103.08296,124.00285 102.3125,126.1875 C 101.95159,127.68832 102.17823,129.25859 102.71875,130.71875 C 104.06936,133.50343 105.32984,134.85691 107.15625,135.9375 C 108.21643,136.4236 109.69722,137.02472 110.875,137.03125 C 110.34292,135.60853 110.04391,134.4106 109.8125,133.09375 C 109.76728,132.61679 109.95459,131.97466 110.3125,131.90625 C 110.86152,131.80133 111.49447,132.22442 112.1875,132.875 C 113.5288,134.08329 114.95004,135.30854 115.375,137.125 C 115.45018,137.33362 115.43969,137.56795 115.5,137.78125 L 112.46875,137.78125 L 112.46875,140.46875 L 117.21875,140.46875 C 116.42194,142.55649 113.54831,146.22383 112,147.28125 C 111.5907,147.5608 113.94076,147.10972 115,146.875 C 116.38931,146.56714 118.19859,145.06558 118.15625,145.59375 C 118.06839,146.68979 118.09986,146.68139 118.21875,147.625 C 118.58987,149.34948 118.68833,149.8467 119.15625,151.15625 C 119.37708,151.77429 119.56383,152.2651 119.6875,152.53125 C 119.90447,152.99821 120.16636,153.51712 120.59375,153.90625 L 120.75,154.09375 L 120.90625,153.90625 C 121.32493,153.51433 121.59261,153.01955 121.8125,152.53125 C 121.93302,152.26362 122.12292,151.77429 122.34375,151.15625 C 122.81167,149.8467 122.91012,149.34948 123.28125,147.625 C 123.40013,146.68139 123.43161,146.68979 123.34375,145.59375 C 123.30141,145.06558 125.11069,146.56714 126.5,146.875 C 127.55924,147.10972 129.9093,147.56079 129.5,147.28125 C 127.9517,146.22384 125.078,142.5565 124.28125,140.46875 L 129.0625,140.46875 L 129.0625,137.78125 L 126,137.78125 C 126.06031,137.56795 126.04981,137.33362 126.125,137.125 C 126.54995,135.30854 127.97121,134.08329 129.3125,132.875 C 130.00553,132.22442 130.63847,131.80133 131.1875,131.90625 C 131.54541,131.97466 131.73274,132.61679 131.6875,133.09375 C 131.45609,134.4106 131.15708,135.60853 130.625,137.03125 C 131.80277,137.02472 133.28357,136.4236 134.34375,135.9375 C 136.17015,134.85691 137.43064,133.50343 138.78125,130.71875 C 139.32177,129.25859 139.5484,127.68832 139.1875,126.1875 C 138.41703,124.00285 136.33449,122.56599 134.1875,121.96875 C 133.10721,121.82767 132.03871,121.99843 130.71875,122.71875 C 129.72367,123.43185 129.06615,124.12558 128.46875,124.71875 C 127.7396,125.44274 127.5231,125.87149 126.84375,126.75 C 126.42429,127.29244 125.88066,128.32748 125.59375,128.6875 C 124.68622,130.3975 124.52668,130.86207 124.03125,132.40625 C 123.46078,134.18431 123.41089,135.94486 123.21875,137.78125 L 122.5,137.78125 C 122.46502,137.02563 122.43662,136.15913 122.53125,135.09375 C 122.56522,134.56074 122.71157,133.38744 123.28125,131.59375 C 123.80839,130.05964 124.3072,128.77463 124.96875,126.96875 C 125.54117,125.4048 126.15155,123.98483 126.65625,121.9375 C 127.12996,119.52694 126.82677,118.13046 126.625,116.8125 C 126.36433,115.26733 125.69536,112.81683 124.59375,110.96875 C 123.64021,109.32699 122.47236,107.82517 121,106.21875 L 120.75,105.90625 z M 180.75,105.90625 L 180.53125,106.1875 C 179.05033,107.80151 177.86371,109.32025 176.90625,110.96875 C 175.80465,112.81683 175.13567,115.26733 174.875,116.8125 C 174.67322,118.13046 174.37004,119.52694 174.84375,121.9375 C 175.34844,123.98483 175.95882,125.4048 176.53125,126.96875 C 177.19279,128.77463 177.69162,130.05964 178.21875,131.59375 C 178.78843,133.38744 178.93479,134.56074 178.96875,135.09375 C 179.06339,136.15913 179.03498,137.02563 179,137.78125 L 178.28125,137.78125 C 178.08911,135.94486 178.03922,134.18431 177.46875,132.40625 C 176.97331,130.86207 176.81378,130.3975 175.90625,128.6875 C 175.61933,128.32748 175.07572,127.29244 174.65625,126.75 C 173.9769,125.87149 173.7604,125.44274 173.03125,124.71875 C 172.43386,124.12558 171.77632,123.43185 170.78125,122.71875 C 169.46128,121.99843 168.39278,121.82767 167.3125,121.96875 C 165.1655,122.56599 163.08296,124.00285 162.3125,126.1875 C 161.95159,127.68832 162.17823,129.25859 162.71875,130.71875 C 164.06936,133.50343 165.32984,134.85691 167.15625,135.9375 C 168.21643,136.4236 169.69722,137.02472 170.875,137.03125 C 170.34291,135.60853 170.04391,134.4106 169.8125,133.09375 C 169.76728,132.61679 169.95459,131.97466 170.3125,131.90625 C 170.86152,131.80133 171.49447,132.22442 172.1875,132.875 C 173.5288,134.08329 174.95004,135.30854 175.375,137.125 C 175.45018,137.33362 175.43969,137.56795 175.5,137.78125 L 172.46875,137.78125 L 172.46875,140.46875 L 177.21875,140.46875 C 176.42194,142.55649 173.54831,146.22383 172,147.28125 C 171.59071,147.5608 173.94076,147.10972 175,146.875 C 176.3893,146.56714 178.19859,145.06558 178.15625,145.59375 C 178.06839,146.68979 178.09986,146.68139 178.21875,147.625 C 178.58987,149.34948 178.68833,149.8467 179.15625,151.15625 C 179.37708,151.77429 179.56383,152.2651 179.6875,152.53125 C 179.90447,152.99821 180.16636,153.51712 180.59375,153.90625 L 180.75,154.09375 L 180.90625,153.90625 C 181.32492,153.51433 181.59261,153.01955 181.8125,152.53125 C 181.93302,152.26362 182.12292,151.77429 182.34375,151.15625 C 182.81167,149.8467 182.91012,149.34948 183.28125,147.625 C 183.40014,146.68139 183.43161,146.68979 183.34375,145.59375 C 183.30141,145.06558 185.11069,146.56714 186.5,146.875 C 187.55923,147.10972 189.9093,147.56079 189.5,147.28125 C 187.9517,146.22384 185.078,142.5565 184.28125,140.46875 L 189.0625,140.46875 L 189.0625,137.78125 L 186,137.78125 C 186.06031,137.56795 186.04981,137.33362 186.125,137.125 C 186.54995,135.30854 187.9712,134.08329 189.3125,132.875 C 190.00553,132.22442 190.63848,131.80133 191.1875,131.90625 C 191.54541,131.97466 191.73273,132.61679 191.6875,133.09375 C 191.45609,134.4106 191.15709,135.60853 190.625,137.03125 C 191.80277,137.02472 193.28356,136.4236 194.34375,135.9375 C 196.17015,134.85691 197.43065,133.50343 198.78125,130.71875 C 199.32177,129.25859 199.54841,127.68832 199.1875,126.1875 C 198.41703,124.00285 196.33449,122.56599 194.1875,121.96875 C 193.10721,121.82767 192.03873,121.99843 190.71875,122.71875 C 189.72367,123.43185 189.06615,124.12558 188.46875,124.71875 C 187.7396,125.44274 187.5231,125.87149 186.84375,126.75 C 186.42429,127.29244 185.88066,128.32748 185.59375,128.6875 C 184.68622,130.3975 184.52667,130.86207 184.03125,132.40625 C 183.46078,134.18431 183.41088,135.94486 183.21875,137.78125 L 182.5,137.78125 C 182.46501,137.02563 182.43662,136.15913 182.53125,135.09375 C 182.56522,134.56074 182.71157,133.38744 183.28125,131.59375 C 183.80838,130.05964 184.3072,128.77463 184.96875,126.96875 C 185.54117,125.4048 186.15155,123.98483 186.65625,121.9375 C 187.12996,119.52694 186.82677,118.13046 186.625,116.8125 C 186.36432,115.26733 185.69536,112.81683 184.59375,110.96875 C 183.64021,109.32699 182.47236,107.82517 181,106.21875 L 180.75,105.90625 z M 240.75,105.90625 L 240.53125,106.1875 C 239.05032,107.80151 237.86371,109.32025 236.90625,110.96875 C 235.80464,112.81683 235.13567,115.26733 234.875,116.8125 C 234.67323,118.13046 234.37004,119.52694 234.84375,121.9375 C 235.34845,123.98483 235.95882,125.4048 236.53125,126.96875 C 237.19279,128.77463 237.69162,130.05964 238.21875,131.59375 C 238.78843,133.38744 238.93479,134.56074 238.96875,135.09375 C 239.06338,136.15913 239.03498,137.02563 239,137.78125 L 238.28125,137.78125 C 238.0891,135.94486 238.03922,134.18431 237.46875,132.40625 C 236.97332,130.86207 236.81378,130.3975 235.90625,128.6875 C 235.61934,128.32748 235.07572,127.29244 234.65625,126.75 C 233.97691,125.87149 233.7604,125.44274 233.03125,124.71875 C 232.43385,124.12558 231.77632,123.43185 230.78125,122.71875 C 229.46128,121.99843 228.39278,121.82767 227.3125,121.96875 C 225.16549,122.56599 223.08296,124.00285 222.3125,126.1875 C 221.95159,127.68832 222.17823,129.25859 222.71875,130.71875 C 224.06935,133.50343 225.32984,134.85691 227.15625,135.9375 C 228.21642,136.4236 229.69722,137.02472 230.875,137.03125 C 230.34292,135.60853 230.04391,134.4106 229.8125,133.09375 C 229.76728,132.61679 229.95459,131.97466 230.3125,131.90625 C 230.86152,131.80133 231.49447,132.22442 232.1875,132.875 C 233.5288,134.08329 234.95004,135.30854 235.375,137.125 C 235.45018,137.33362 235.43969,137.56795 235.5,137.78125 L 232.46875,137.78125 L 232.46875,140.46875 L 237.21875,140.46875 C 236.42193,142.55649 233.54831,146.22383 232,147.28125 C 231.5907,147.5608 233.94076,147.10972 235,146.875 C 236.38931,146.56714 238.19859,145.06558 238.15625,145.59375 C 238.06839,146.68979 238.09986,146.68139 238.21875,147.625 C 238.58987,149.34948 238.68833,149.8467 239.15625,151.15625 C 239.37708,151.77429 239.56383,152.2651 239.6875,152.53125 C 239.90447,152.99821 240.16636,153.51712 240.59375,153.90625 L 240.75,154.09375 L 240.90625,153.90625 C 241.32493,153.51433 241.59261,153.01955 241.8125,152.53125 C 241.93301,152.26362 242.12292,151.77429 242.34375,151.15625 C 242.81166,149.8467 242.91012,149.34948 243.28125,147.625 C 243.40013,146.68139 243.43161,146.68979 243.34375,145.59375 C 243.3014,145.06558 245.11069,146.56714 246.5,146.875 C 247.55924,147.10972 249.9093,147.56079 249.5,147.28125 C 247.9517,146.22384 245.078,142.5565 244.28125,140.46875 L 249.0625,140.46875 L 249.0625,137.78125 L 246,137.78125 C 246.06032,137.56795 246.04982,137.33362 246.125,137.125 C 246.54995,135.30854 247.97121,134.08329 249.3125,132.875 C 250.00553,132.22442 250.63848,131.80133 251.1875,131.90625 C 251.54541,131.97466 251.73273,132.61679 251.6875,133.09375 C 251.45609,134.4106 251.15708,135.60853 250.625,137.03125 C 251.80277,137.02472 253.28355,136.4236 254.34375,135.9375 C 256.17015,134.85691 257.43064,133.50343 258.78125,130.71875 C 259.32177,129.25859 259.54841,127.68832 259.1875,126.1875 C 258.41703,124.00285 256.33448,122.56599 254.1875,121.96875 C 253.10721,121.82767 252.03872,121.99843 250.71875,122.71875 C 249.72367,123.43185 249.06615,124.12558 248.46875,124.71875 C 247.7396,125.44274 247.52311,125.87149 246.84375,126.75 C 246.42429,127.29244 245.88066,128.32748 245.59375,128.6875 C 244.68622,130.3975 244.52668,130.86207 244.03125,132.40625 C 243.46078,134.18431 243.41089,135.94486 243.21875,137.78125 L 242.5,137.78125 C 242.46502,137.02563 242.43662,136.15913 242.53125,135.09375 C 242.56523,134.56074 242.71157,133.38744 243.28125,131.59375 C 243.80839,130.05964 244.3072,128.77463 244.96875,126.96875 C 245.54117,125.4048 246.15155,123.98483 246.65625,121.9375 C 247.12995,119.52694 246.82677,118.13046 246.625,116.8125 C 246.36433,115.26733 245.69536,112.81683 244.59375,110.96875 C 243.64021,109.32699 242.47236,107.82517 241,106.21875 L 240.75,105.90625 z M 90.75,145.90625 L 90.53125,146.1875 C 89.050321,147.80151 87.863709,149.32025 86.90625,150.96875 C 85.804636,152.81683 85.135673,155.26733 84.875,156.8125 C 84.673231,158.13046 84.370041,159.52694 84.84375,161.9375 C 85.348444,163.98482 85.958829,165.4048 86.53125,166.96875 C 87.192799,168.77464 87.691616,170.05964 88.21875,171.59375 C 88.788432,173.38744 88.934784,174.56074 88.96875,175.09375 C 89.063376,176.15913 89.034982,177.02563 89,177.78125 L 88.28125,177.78125 C 88.089106,175.94486 88.039221,174.18431 87.46875,172.40625 C 86.973321,170.86207 86.813781,170.3975 85.90625,168.6875 C 85.619344,168.32748 85.075714,167.29244 84.65625,166.75 C 83.976905,165.8715 83.760401,165.44274 83.03125,164.71875 C 82.433851,164.12559 81.776325,163.43185 80.78125,162.71875 C 79.461283,161.99842 78.392784,161.82767 77.3125,161.96875 C 75.165507,162.56599 73.082966,164.00285 72.3125,166.1875 C 71.951589,167.68832 72.178234,169.25859 72.71875,170.71875 C 74.069357,173.50343 75.32985,174.85691 77.15625,175.9375 C 78.21644,176.4236 79.697223,177.02472 80.875,177.03125 C 80.342914,175.60853 80.043914,174.4106 79.8125,173.09375 C 79.767276,172.61679 79.954591,171.97466 80.3125,171.90625 C 80.861524,171.80133 81.494465,172.22442 82.1875,172.875 C 83.528788,174.08329 84.950048,175.30854 85.375,177.125 C 85.450183,177.33362 85.439686,177.56795 85.5,177.78125 L 82.46875,177.78125 L 82.46875,180.46875 L 87.21875,180.46875 C 86.894676,181.31786 86.219765,182.41017 85.4375,183.5 L 96.0625,183.5 C 95.280232,182.41016 94.6053,181.31786 94.28125,180.46875 L 99.0625,180.46875 L 99.0625,177.78125 L 96,177.78125 C 96.060313,177.56795 96.049813,177.33362 96.125,177.125 C 96.549952,175.30854 97.971208,174.08329 99.3125,172.875 C 100.00553,172.22442 100.63848,171.80133 101.1875,171.90625 C 101.54541,171.97466 101.73273,172.61679 101.6875,173.09375 C 101.45609,174.4106 101.15708,175.60853 100.625,177.03125 C 101.80277,177.02472 103.28356,176.4236 104.34375,175.9375 C 106.17015,174.85691 107.43064,173.50343 108.78125,170.71875 C 109.32177,169.25859 109.5484,167.68832 109.1875,166.1875 C 108.41703,164.00285 106.33449,162.56599 104.1875,161.96875 C 103.10721,161.82767 102.03872,161.99842 100.71875,162.71875 C 99.723674,163.43185 99.066146,164.12559 98.46875,164.71875 C 97.739599,165.44274 97.523099,165.8715 96.84375,166.75 C 96.424286,167.29244 95.88066,168.32748 95.59375,168.6875 C 94.686219,170.3975 94.526682,170.86207 94.03125,172.40625 C 93.460779,174.18431 93.41089,175.94486 93.21875,177.78125 L 92.5,177.78125 C 92.46502,177.02563 92.436622,176.15913 92.53125,175.09375 C 92.565216,174.56074 92.711567,173.38744 93.28125,171.59375 C 93.808383,170.05964 94.307203,168.77463 94.96875,166.96875 C 95.541168,165.40481 96.151553,163.98483 96.65625,161.9375 C 97.129961,159.52693 96.82677,158.13046 96.625,156.8125 C 96.364326,155.26733 95.695361,152.81683 94.59375,150.96875 C 93.640215,149.32699 92.47236,147.82517 91,146.21875 L 90.75,145.90625 z M 150.75,145.90625 L 150.53125,146.1875 C 149.05033,147.80151 147.86371,149.32025 146.90625,150.96875 C 145.80465,152.81683 145.13567,155.26733 144.875,156.8125 C 144.67322,158.13046 144.37004,159.52694 144.84375,161.9375 C 145.34844,163.98482 145.95882,165.4048 146.53125,166.96875 C 147.19279,168.77464 147.69162,170.05964 148.21875,171.59375 C 148.78843,173.38744 148.93479,174.56074 148.96875,175.09375 C 149.06339,176.15913 149.03498,177.02563 149,177.78125 L 148.28125,177.78125 C 148.08911,175.94486 148.03922,174.18431 147.46875,172.40625 C 146.97331,170.86207 146.81378,170.3975 145.90625,168.6875 C 145.61933,168.32748 145.07572,167.29244 144.65625,166.75 C 143.9769,165.8715 143.7604,165.44274 143.03125,164.71875 C 142.43386,164.12559 141.77632,163.43185 140.78125,162.71875 C 139.46128,161.99842 138.39278,161.82767 137.3125,161.96875 C 135.1655,162.56599 133.08296,164.00285 132.3125,166.1875 C 131.95159,167.68832 132.17823,169.25859 132.71875,170.71875 C 134.06936,173.50343 135.32984,174.85691 137.15625,175.9375 C 138.21643,176.4236 139.69722,177.02472 140.875,177.03125 C 140.34291,175.60853 140.04391,174.4106 139.8125,173.09375 C 139.76728,172.61679 139.95459,171.97466 140.3125,171.90625 C 140.86152,171.80133 141.49447,172.22442 142.1875,172.875 C 143.5288,174.08329 144.95004,175.30854 145.375,177.125 C 145.45018,177.33362 145.43969,177.56795 145.5,177.78125 L 142.46875,177.78125 L 142.46875,180.46875 L 147.21875,180.46875 C 146.89468,181.31786 146.21976,182.41017 145.4375,183.5 L 156.0625,183.5 C 155.28023,182.41016 154.6053,181.31786 154.28125,180.46875 L 159.0625,180.46875 L 159.0625,177.78125 L 156,177.78125 C 156.06031,177.56795 156.04981,177.33362 156.125,177.125 C 156.54995,175.30854 157.9712,174.08329 159.3125,172.875 C 160.00553,172.22442 160.63848,171.80133 161.1875,171.90625 C 161.54541,171.97466 161.73273,172.61679 161.6875,173.09375 C 161.45609,174.4106 161.15709,175.60853 160.625,177.03125 C 161.80277,177.02472 163.28356,176.4236 164.34375,175.9375 C 166.17015,174.85691 167.43065,173.50343 168.78125,170.71875 C 169.32177,169.25859 169.54841,167.68832 169.1875,166.1875 C 168.41703,164.00285 166.33449,162.56599 164.1875,161.96875 C 163.10721,161.82767 162.03873,161.99842 160.71875,162.71875 C 159.72367,163.43185 159.06615,164.12559 158.46875,164.71875 C 157.7396,165.44274 157.5231,165.8715 156.84375,166.75 C 156.42429,167.29244 155.88066,168.32748 155.59375,168.6875 C 154.68622,170.3975 154.52667,170.86207 154.03125,172.40625 C 153.46078,174.18431 153.41088,175.94486 153.21875,177.78125 L 152.5,177.78125 C 152.46501,177.02563 152.43662,176.15913 152.53125,175.09375 C 152.56522,174.56074 152.71157,173.38744 153.28125,171.59375 C 153.80838,170.05964 154.3072,168.77463 154.96875,166.96875 C 155.54117,165.40481 156.15155,163.98483 156.65625,161.9375 C 157.12996,159.52693 156.82677,158.13046 156.625,156.8125 C 156.36432,155.26733 155.69536,152.81683 154.59375,150.96875 C 153.64021,149.32699 152.47236,147.82517 151,146.21875 L 150.75,145.90625 z M 210.75,145.90625 L 210.53125,146.1875 C 209.05033,147.80151 207.86371,149.32025 206.90625,150.96875 C 205.80465,152.81683 205.13567,155.26733 204.875,156.8125 C 204.67322,158.13046 204.37004,159.52694 204.84375,161.9375 C 205.34844,163.98482 205.95882,165.4048 206.53125,166.96875 C 207.19279,168.77464 207.69162,170.05964 208.21875,171.59375 C 208.78843,173.38744 208.93479,174.56074 208.96875,175.09375 C 209.06339,176.15913 209.03498,177.02563 209,177.78125 L 208.28125,177.78125 C 208.08911,175.94486 208.03922,174.18431 207.46875,172.40625 C 206.97331,170.86207 206.81378,170.3975 205.90625,168.6875 C 205.61933,168.32748 205.07572,167.29244 204.65625,166.75 C 203.9769,165.8715 203.7604,165.44274 203.03125,164.71875 C 202.43386,164.12559 201.77632,163.43185 200.78125,162.71875 C 199.46128,161.99842 198.39278,161.82767 197.3125,161.96875 C 195.1655,162.56599 193.08296,164.00285 192.3125,166.1875 C 191.95159,167.68832 192.17823,169.25859 192.71875,170.71875 C 194.06936,173.50343 195.32984,174.85691 197.15625,175.9375 C 198.21643,176.4236 199.69722,177.02472 200.875,177.03125 C 200.34291,175.60853 200.04391,174.4106 199.8125,173.09375 C 199.76728,172.61679 199.95459,171.97466 200.3125,171.90625 C 200.86152,171.80133 201.49447,172.22442 202.1875,172.875 C 203.5288,174.08329 204.95004,175.30854 205.375,177.125 C 205.45018,177.33362 205.43969,177.56795 205.5,177.78125 L 202.46875,177.78125 L 202.46875,180.46875 L 207.21875,180.46875 C 206.89468,181.31786 206.21976,182.41017 205.4375,183.5 L 216.0625,183.5 C 215.28023,182.41016 214.6053,181.31786 214.28125,180.46875 L 219.0625,180.46875 L 219.0625,177.78125 L 216,177.78125 C 216.06031,177.56795 216.04981,177.33362 216.125,177.125 C 216.54995,175.30854 217.9712,174.08329 219.3125,172.875 C 220.00553,172.22442 220.63848,171.80133 221.1875,171.90625 C 221.54541,171.97466 221.73273,172.61679 221.6875,173.09375 C 221.45609,174.4106 221.15709,175.60853 220.625,177.03125 C 221.80277,177.02472 223.28356,176.4236 224.34375,175.9375 C 226.17015,174.85691 227.43065,173.50343 228.78125,170.71875 C 229.32177,169.25859 229.54841,167.68832 229.1875,166.1875 C 228.41703,164.00285 226.33449,162.56599 224.1875,161.96875 C 223.10721,161.82767 222.03873,161.99842 220.71875,162.71875 C 219.72367,163.43185 219.06615,164.12559 218.46875,164.71875 C 217.7396,165.44274 217.5231,165.8715 216.84375,166.75 C 216.42429,167.29244 215.88066,168.32748 215.59375,168.6875 C 214.68622,170.3975 214.52667,170.86207 214.03125,172.40625 C 213.46078,174.18431 213.41088,175.94486 213.21875,177.78125 L 212.5,177.78125 C 212.46501,177.02563 212.43662,176.15913 212.53125,175.09375 C 212.56522,174.56074 212.71157,173.38744 213.28125,171.59375 C 213.80838,170.05964 214.3072,168.77463 214.96875,166.96875 C 215.54117,165.40481 216.15155,163.98483 216.65625,161.9375 C 217.12996,159.52693 216.82677,158.13046 216.625,156.8125 C 216.36432,155.26733 215.69536,152.81683 214.59375,150.96875 C 213.64021,149.32699 212.47236,147.82517 211,146.21875 L 210.75,145.90625 z M 36.5,156.21875 L 36.5,162.5 C 36.551194,162.31123 36.60694,162.13753 36.65625,161.9375 C 37.129958,159.52693 36.82677,158.13046 36.625,156.8125 C 36.595542,156.63788 36.539922,156.41431 36.5,156.21875 z M 265,156.21875 C 264.96008,156.41431 264.90446,156.63788 264.875,156.8125 C 264.67322,158.13046 264.37004,159.52694 264.84375,161.9375 C 264.89306,162.13753 264.94881,162.31123 265,162.5 L 265,156.21875 z M 43.375,161.9375 C 42.556867,161.95977 41.708727,162.1785 40.71875,162.71875 C 39.723675,163.43185 39.066146,164.12559 38.46875,164.71875 C 37.739599,165.44274 37.523095,165.8715 36.84375,166.75 C 36.741084,166.88277 36.611958,167.07534 36.5,167.25 L 36.5,176.125 C 37.122829,174.83514 38.235221,173.84546 39.3125,172.875 C 40.005535,172.22442 40.63848,171.80133 41.1875,171.90625 C 41.545409,171.97466 41.732723,172.61679 41.6875,173.09375 C 41.456086,174.4106 41.157082,175.60853 40.625,177.03125 C 41.802777,177.02472 43.28356,176.4236 44.34375,175.9375 C 46.17015,174.85691 47.430639,173.50343 48.78125,170.71875 C 49.321766,169.25859 49.548407,167.68832 49.1875,166.1875 C 48.417034,164.00285 46.334497,162.56599 44.1875,161.96875 C 43.917429,161.93348 43.647711,161.93008 43.375,161.9375 z M 258.125,161.9375 C 257.85229,161.93008 257.58257,161.93348 257.3125,161.96875 C 255.16549,162.56599 253.08296,164.00285 252.3125,166.1875 C 251.95159,167.68832 252.17823,169.25859 252.71875,170.71875 C 254.06936,173.50343 255.32984,174.85691 257.15625,175.9375 C 258.21642,176.4236 259.69722,177.02472 260.875,177.03125 C 260.34293,175.60853 260.04391,174.4106 259.8125,173.09375 C 259.76728,172.61679 259.95459,171.97466 260.3125,171.90625 C 260.86151,171.80133 261.49447,172.22442 262.1875,172.875 C 263.2648,173.84546 264.37717,174.83514 265,176.125 L 265,167.25 C 264.88804,167.07534 264.75892,166.88277 264.65625,166.75 C 263.97692,165.8715 263.7604,165.44274 263.03125,164.71875 C 262.43384,164.12559 261.77632,163.43185 260.78125,162.71875 C 259.79127,162.1785 258.94313,161.95977 258.125,161.9375 z M 36.5,177.78125 L 36.5,180.46875 L 39.0625,180.46875 L 39.0625,177.78125 L 36.5,177.78125 z M 262.46875,177.78125 L 262.46875,180.46875 L 265,180.46875 L 265,177.78125 L 262.46875,177.78125 z "
       id="path7638" />
    <path
       style="opacity:1;color:black;fill:#e20909;fill-opacity:1;fill-rule:nonzero;stroke:black;stroke-width:2.99999809;stroke-linecap:butt;stroke-linejoin:miter;marker:none;marker-start:none;marker-mid:none;marker-end:none;stroke-miterlimit:4;stroke-dasharray:none;stroke-dashoffset:0;stroke-opacity:1;visibility:visible;display:inline;overflow:visible"
       d="M 300,1.5 L 300,218.5 L 598.5,218.5 C 598.50001,56.937966 598.5,1.5 598.5,1.5 L 300,1.5 z M 335,36.5 L 563.5,36.5 L 563.5,183.5 L 335,183.5 L 335,36.5 z "
       id="rect2792" />
    <g
       style="display:inline"
       id="g22806">
      <path
         id="path2815"
         d="M 1.5,1.5 L 1.5,218.5 L 300,218.5 C 300.00001,56.937966 300,1.5 300,1.5 L 1.5,1.5 z M 36.5,36.5 L 265,36.5 L 265,183.5 L 36.5,183.5 L 36.5,36.5 z "
         style="opacity:1;color:black;fill:white;fill-opacity:1;fill-rule:nonzero;stroke:black;stroke-width:2.99999809;stroke-linecap:butt;stroke-linejoin:miter;marker:none;marker-start:none;marker-mid:none;marker-end:none;stroke-miterlimit:4;stroke-dasharray:none;stroke-dashoffset:0;stroke-opacity:1;visibility:visible;display:inline;overflow:visible" />
      <path
         id="rect10185"
         d="M 1.5,142 L 1.5,174 L 36.5,174 L 36.5,142 L 1.5,142 z "
         style="color:black;fill:#e20909;fill-opacity:1;fill-rule:nonzero;stroke:black;stroke-width:2.99999976;stroke-linecap:butt;stroke-linejoin:miter;marker:none;marker-start:none;marker-mid:none;marker-end:none;stroke-miterlimit:4;stroke-dasharray:none;stroke-dashoffset:0;stroke-opacity:1;visibility:visible;display:inline;overflow:visible" />
      <path
         id="rect11074"
         d="M 1.5,78 L 1.5,110 L 36.5,110 L 36.5,78 L 1.5,78 z "
         style="color:black;fill:#e20909;fill-opacity:1;fill-rule:nonzero;stroke:black;stroke-width:2.99999976;stroke-linecap:butt;stroke-linejoin:miter;marker:none;marker-start:none;marker-mid:none;marker-end:none;stroke-miterlimit:4;stroke-dasharray:none;stroke-dashoffset:0;stroke-opacity:1;visibility:visible;display:inline;overflow:visible" />
      <path
         id="rect11098"
         d="M 265,110 L 265,142 L 300,142 C 300,128.28033 300,120.0438 300,110 L 265,110 z "
         style="color:black;fill:#e20909;fill-opacity:1;fill-rule:nonzero;stroke:black;stroke-width:2.99999976;stroke-linecap:butt;stroke-linejoin:miter;marker:none;marker-start:none;marker-mid:none;marker-end:none;stroke-miterlimit:4;stroke-dasharray:none;stroke-dashoffset:0;stroke-opacity:1;visibility:visible;display:inline;overflow:visible" />
      <path
         id="rect11102"
         d="M 265,46 L 265,78 L 300,78 C 300,71.307001 300,49.667281 300,46 L 265,46 z "
         style="color:black;fill:#e20909;fill-opacity:1;fill-rule:nonzero;stroke:black;stroke-width:2.99999976;stroke-linecap:butt;stroke-linejoin:miter;marker:none;marker-start:none;marker-mid:none;marker-end:none;stroke-miterlimit:4;stroke-dasharray:none;stroke-dashoffset:0;stroke-opacity:1;visibility:visible;display:inline;overflow:visible" />
      <path
         id="rect11108"
         d="M 45.75,1.5 L 45.75,36.5 L 80.75,36.5 L 80.75,1.5 L 45.75,1.5 z "
         style="color:black;fill:#e20909;fill-opacity:1;fill-rule:nonzero;stroke:black;stroke-width:3;stroke-linecap:butt;stroke-linejoin:miter;marker:none;marker-start:none;marker-mid:none;marker-end:none;stroke-miterlimit:4;stroke-dasharray:none;stroke-dashoffset:0;stroke-opacity:1;visibility:visible;display:inline;overflow:visible" />
      <path
         id="rect11133"
         d="M 115.75,1.5 L 115.75,36.5 L 150.75,36.5 L 150.75,1.5 L 115.75,1.5 z "
         style="color:black;fill:#e20909;fill-opacity:1;fill-rule:nonzero;stroke:black;stroke-width:2.99999976;stroke-linecap:butt;stroke-linejoin:miter;marker:none;marker-start:none;marker-mid:none;marker-end:none;stroke-miterlimit:4;stroke-dasharray:none;stroke-dashoffset:0;stroke-opacity:1;visibility:visible;display:inline;overflow:visible" />
      <path
         id="rect11139"
         d="M 185.75,1.5 L 185.75,36.5 L 220.75,36.5 L 220.75,1.5 L 185.75,1.5 z "
         style="color:black;fill:#e20909;fill-opacity:1;fill-rule:nonzero;stroke:black;stroke-width:2.99999976;stroke-linecap:butt;stroke-linejoin:miter;marker:none;marker-start:none;marker-mid:none;marker-end:none;stroke-miterlimit:4;stroke-dasharray:none;stroke-dashoffset:0;stroke-opacity:1;visibility:visible;display:inline;overflow:visible" />
      <path
         id="rect11161"
         d="M 80.75,183.5 L 80.75,218.5 L 115.75,218.5 L 115.75,183.5 L 80.75,183.5 z "
         style="color:black;fill:#e20909;fill-opacity:1;fill-rule:nonzero;stroke:black;stroke-width:2.99999976;stroke-linecap:butt;stroke-linejoin:miter;marker:none;marker-start:none;marker-mid:none;marker-end:none;stroke-miterlimit:4;stroke-dasharray:none;stroke-dashoffset:0;stroke-opacity:1;visibility:visible;display:inline;overflow:visible" />
      <path
         id="rect11165"
         d="M 150.75,183.5 L 150.75,218.5 L 185.75,218.5 L 185.75,183.5 L 150.75,183.5 z "
         style="color:black;fill:#e20909;fill-opacity:1;fill-rule:nonzero;stroke:black;stroke-width:2.99999976;stroke-linecap:butt;stroke-linejoin:miter;marker:none;marker-start:none;marker-mid:none;marker-end:none;stroke-miterlimit:4;stroke-dasharray:none;stroke-dashoffset:0;stroke-opacity:1;visibility:visible;display:inline;overflow:visible" />
      <path
         id="rect11169"
         d="M 220.75,183.5 L 220.75,218.5 L 255.75,218.5 L 255.75,183.5 L 220.75,183.5 z "
         style="color:black;fill:#e20909;fill-opacity:1;fill-rule:nonzero;stroke:black;stroke-width:2.99999976;stroke-linecap:butt;stroke-linejoin:miter;marker:none;marker-start:none;marker-mid:none;marker-end:none;stroke-miterlimit:4;stroke-dasharray:none;stroke-dashoffset:0;stroke-opacity:1;visibility:visible;display:inline;overflow:visible" />
      <path
         id="path12058"
         d="M 36.5,183.40625 L 1.5,218.3125 L 1.5,218.5 L 45.75,218.5 L 45.75,183.5 L 36.5,183.5 L 36.5,183.40625 z "
         style="opacity:1;color:black;fill:#e20909;fill-opacity:1;fill-rule:nonzero;stroke:black;stroke-width:2.99999809;stroke-linecap:butt;stroke-linejoin:miter;marker:none;marker-start:none;marker-mid:none;marker-end:none;stroke-miterlimit:4;stroke-dasharray:none;stroke-dashoffset:0;stroke-opacity:1;visibility:visible;display:inline;overflow:visible" />
      <g
         id="g19206">
        <path
           style="opacity:1;color:black;fill:#e20909;fill-opacity:1;fill-rule:nonzero;stroke:black;stroke-width:3;stroke-linecap:butt;stroke-linejoin:miter;marker:none;marker-start:none;marker-mid:none;marker-end:none;stroke-miterlimit:4;stroke-dasharray:none;stroke-dashoffset:0;stroke-opacity:1;visibility:visible;display:inline;overflow:visible"
           d="M 1.5,1.5 L 1.5,46 L 36.5,46 L 36.5,36.5 L 45.75,36.5 L 45.75,1.5 L 1.5,1.5 z "
           id="rect14751" />
        <path
           style="opacity:1;color:black;fill:white;fill-opacity:1;fill-rule:nonzero;stroke:black;stroke-width:3;stroke-linecap:butt;stroke-linejoin:miter;marker:none;marker-start:none;marker-mid:none;marker-end:none;stroke-miterlimit:4;stroke-dasharray:none;stroke-dashoffset:0;stroke-opacity:1;visibility:visible;display:inline;overflow:visible"
           d="M 36.5,36.588804 L 1.5,1.682554 L 1.5,1.495054 L 45.75,1.495054 L 45.75,36.495054 L 36.5,36.495054 L 36.5,36.588804 z "
           id="path12965" />
      </g>
      <g
         transform="matrix(-1,0,0,-1,301.5,219.9951)"
         id="g19210"
         style="display:inline">
        <path
           style="opacity:1;color:black;fill:#e20909;fill-opacity:1;fill-rule:nonzero;stroke:black;stroke-width:3;stroke-linecap:butt;stroke-linejoin:miter;marker:none;marker-start:none;marker-mid:none;marker-end:none;stroke-miterlimit:4;stroke-dasharray:none;stroke-dashoffset:0;stroke-opacity:1;visibility:visible;display:inline;overflow:visible"
           d="M 1.5,1.5 L 1.5,46 L 36.5,46 L 36.5,36.5 L 45.75,36.5 L 45.75,1.5 L 1.5,1.5 z "
           id="path19212" />
        <path
           style="opacity:1;color:black;fill:white;fill-opacity:1;fill-rule:nonzero;stroke:black;stroke-width:3;stroke-linecap:butt;stroke-linejoin:miter;marker:none;marker-start:none;marker-mid:none;marker-end:none;stroke-miterlimit:4;stroke-dasharray:none;stroke-dashoffset:0;stroke-opacity:1;visibility:visible;display:inline;overflow:visible"
           d="M 36.5,36.588804 L 1.5,1.682554 L 1.5,1.495054 L 45.75,1.495054 L 45.75,36.495054 L 36.5,36.495054 L 36.5,36.588804 z "
           id="path19214" />
      </g>
      <path
         id="path19225"
         d="M 265,36.59375 L 300,1.6875 L 300,1.5 L 255.75,1.5 L 255.75,36.5 L 265,36.5 L 265,36.59375 z "
         style="opacity:1;color:black;fill:#e20909;fill-opacity:1;fill-rule:nonzero;stroke:black;stroke-width:2.99999809;stroke-linecap:butt;stroke-linejoin:miter;marker:none;marker-start:none;marker-mid:none;marker-end:none;stroke-miterlimit:4;stroke-dasharray:none;stroke-dashoffset:0;stroke-opacity:1;visibility:visible;display:inline;overflow:visible" />
    </g>
  </g>
  <g
     inkscape:groupmode="layer"
     id="layer2"
     inkscape:label="Reflet final"
     sodipodi:insensitive="true">
    <path
       sodipodi:nodetypes="cccccc"
       d="M 300.00001,658.5 C 300.00001,658.5 598.50001,546.17969 598.50001,260.72817 C 598.50001,-24.723334 598.50001,2.1764865 598.50001,2.1764865 L 1.5,2.1764865 L 1.5,260.72817 C 1.5,546.17969 300.00001,658.5 300.00001,658.5 z "
       style="opacity:1;fill:url(#radialGradient3163);fill-opacity:1;fill-rule:evenodd;stroke:none;stroke-width:1px;stroke-linecap:butt;stroke-linejoin:miter;stroke-opacity:1"
       id="path2875"
       inkscape:export-xdpi="144"
       inkscape:export-ydpi="144" />
  </g>
  <g
     inkscape:groupmode="layer"
     id="layer1"
     inkscape:label="Contour final"
     sodipodi:insensitive="true">
    <path
       sodipodi:nodetypes="cccccc"
       d="M 299.99999,658.50028 C 299.99999,658.50028 1.5,546.17992 1.5,260.72828 C 1.5,-24.723336 1.5,2.1764957 1.5,2.1764957 L 598.49999,2.1764957 L 598.49999,260.72828 C 598.49999,546.17992 299.99999,658.50028 299.99999,658.50028 z "
       style="opacity:1;fill:none;fill-opacity:1;fill-rule:evenodd;stroke:#000000;stroke-width:3.00000048;stroke-linecap:butt;stroke-linejoin:miter;stroke-miterlimit:4;stroke-dasharray:none;stroke-opacity:1"
       id="path1411"
       inkscape:export-xdpi="144"
       inkscape:export-ydpi="144" />
  </g>
</svg>
